<?xml version="1.0" encoding="utf-8"?>
<!-- Generator: Adobe Illustrator 22.0.0, SVG Export Plug-In . SVG Version: 6.00 Build 0)  -->
<svg version="1.1" id="圖層_1" xmlns="http://www.w3.org/2000/svg" xmlns:xlink="http://www.w3.org/1999/xlink" x="0px" y="0px"
	 viewBox="0 0 1600 795" style="enable-background:new 0 0 1600 795;" xml:space="preserve">
<style type="text/css">
	.st0{fill:#F2F2F2;}
</style>
<g>
	<path class="st0" d="M63.3,497.6v-46.5h120.1V561c-11.7,11.3-28.6,21.2-50.7,29.8c-22.1,8.6-44.6,12.9-67.3,12.9
		c-28.9,0-54-6.1-75.5-18.2c-21.5-12.1-37.6-29.4-48.4-51.9c-10.8-22.5-16.2-47-16.2-73.5c0-28.7,6-54.3,18.1-76.6
		c12-22.3,29.7-39.5,52.9-51.4C14,323,36,318.4,62.3,318.4c34.3,0,61,7.2,80.3,21.6c19.3,14.4,31.6,34.2,37.2,59.6l-55.3,10.4
		c-3.9-13.6-11.2-24.2-21.9-32.1C91.8,369.9,78.4,366,62.3,366c-24.3,0-43.7,7.7-58.1,23.2c-14.4,15.4-21.6,38.3-21.6,68.7
		c0,32.8,7.3,57.3,21.8,73.7c14.6,16.4,33.6,24.6,57.2,24.6c11.7,0,23.4-2.3,35.1-6.9c11.7-4.6,21.8-10.1,30.2-16.7v-35H63.3z"/>
	<path class="st0" d="M473.9,599h-60.6l-24.1-62.7H278.9L256.2,599h-59.1l107.5-275.9h58.9L473.9,599z M371.4,489.9l-38-102.4
		l-37.3,102.4H371.4z"/>
	<path class="st0" d="M492.2,599V323.1h55.7V599H492.2z"/>
	<path class="st0" d="M840.1,599h-60.6l-24.1-62.7H645.1L622.4,599h-59.1l107.5-275.9h58.9L840.1,599z M737.5,489.9l-38-102.4
		l-37.3,102.4H737.5z"/>
	<path class="st0" d="M1119.7,497.6l54,17.1c-8.3,30.1-22.1,52.5-41.3,67.1c-19.3,14.6-43.7,21.9-73.3,21.9
		c-36.6,0-66.8-12.5-90.3-37.5c-23.6-25-35.4-59.3-35.4-102.7c0-45.9,11.9-81.6,35.6-107c23.7-25.4,54.9-38.1,93.5-38.1
		c33.8,0,61.2,10,82.3,29.9c12.5,11.8,22,28.7,28.2,50.8l-55.1,13.2c-3.3-14.3-10.1-25.6-20.4-33.9c-10.4-8.3-22.9-12.4-37.7-12.4
		c-20.5,0-37,7.3-49.8,22c-12.7,14.7-19.1,38.5-19.1,71.3c0,34.9,6.3,59.7,18.8,74.5c12.5,14.8,28.9,22.2,48.9,22.2
		c14.8,0,27.5-4.7,38.2-14.1C1107.4,532.6,1115.1,517.8,1119.7,497.6z"/>
	<path class="st0" d="M1460.8,599h-60.6l-24.1-62.7h-110.3L1243,599h-59.1l107.5-275.9h58.9L1460.8,599z M1358.2,489.9l-38-102.4
		l-37.3,102.4H1358.2z"/>
	<path class="st0" d="M1480.7,599V323.1h89.4c33.9,0,56,1.4,66.3,4.1c15.8,4.1,29,13.1,39.7,27c10.7,13.9,16,31.8,16,53.7
		c0,16.9-3.1,31.2-9.2,42.7c-6.1,11.5-14,20.6-23.4,27.2c-9.5,6.6-19.1,10.9-28.9,13.1c-13.3,2.6-32.6,4-57.8,4h-36.3V599H1480.7z
		 M1536.4,369.8v78.3h30.5c22,0,36.6-1.4,44-4.3c7.4-2.9,13.2-7.4,17.4-13.6c4.2-6.1,6.3-13.3,6.3-21.5c0-10-3-18.3-8.8-24.8
		c-5.9-6.5-13.4-10.6-22.4-12.2c-6.7-1.3-20-1.9-40.1-1.9H1536.4z"/>
</g>
</svg>
