<?xml version="1.0" encoding="utf-8"?>
<!-- Generator: Adobe Illustrator 16.0.0, SVG Export Plug-In . SVG Version: 6.00 Build 0)  -->
<!DOCTYPE svg PUBLIC "-//W3C//DTD SVG 1.1//EN" "http://www.w3.org/Graphics/SVG/1.1/DTD/svg11.dtd">
<svg version="1.1" id="圖層_1" xmlns="http://www.w3.org/2000/svg" xmlns:xlink="http://www.w3.org/1999/xlink" x="0px" y="0px"
	 width="100px" height="100px" viewBox="0 0 100 100" enable-background="new 0 0 100 100" xml:space="preserve">
<g>
	<path fill-rule="evenodd" clip-rule="evenodd" fill="#FFFFFF" d="M99.995,50.026c0,6.835,0.013,13.671-0.003,20.506
		c-0.016,6.789-2.152,12.862-6.331,18.19c-3.729,4.751-8.513,8.037-14.258,9.899c-1.98,0.643-4.01,1.082-6.093,1.229
		c-0.962,0.068-1.927,0.139-2.889,0.139c-13.659,0.009-27.319,0.015-40.977,0.003c-5.74-0.006-11.028-1.586-15.853-4.695
		C8.949,92.306,5.42,88.314,2.984,83.363c-1.393-2.832-2.317-5.815-2.691-8.953c-0.15-1.263-0.273-2.538-0.275-3.808
		C-0.001,56.825-0.01,43.046,0.017,29.268c0.009-4.474,1.05-8.724,3.034-12.743c1.608-3.259,3.736-6.129,6.399-8.592
		c4.115-3.806,8.919-6.281,14.429-7.368c1.933-0.381,3.883-0.56,5.853-0.56C43.485,0.007,57.24-0.016,70.993,0.022
		c4.112,0.011,8.045,0.96,11.786,2.688c3.333,1.539,6.281,3.617,8.836,6.247c3.91,4.027,6.481,8.79,7.708,14.266
		c0.449,2.011,0.677,4.052,0.675,6.118C99.992,36.235,99.995,43.13,99.995,50.026z M49.979,95.444
		c6.703,0,13.408-0.007,20.112,0.004c2.019,0.003,4.019-0.165,5.983-0.624c3.926-0.917,7.442-2.665,10.527-5.273
		c2.541-2.149,4.577-4.701,6.094-7.659c1.878-3.658,2.756-7.553,2.752-11.666c-0.014-13.48-0.007-26.961-0.004-40.441
		c0.001-2.307-0.265-4.574-0.871-6.804c-1.135-4.173-3.221-7.805-6.23-10.899c-2.409-2.478-5.229-4.364-8.433-5.672
		c-2.742-1.12-5.598-1.805-8.554-1.813C57.542,4.557,43.728,4.578,29.914,4.571c-1.528,0-3.043,0.104-4.551,0.353
		c-2.947,0.485-5.723,1.464-8.294,2.969c-4.855,2.844-8.407,6.857-10.591,12.055c-1.182,2.812-1.876,5.751-1.883,8.797
		c-0.035,13.91-0.025,27.82-0.007,41.729c0.001,1.246,0.124,2.497,0.279,3.734c0.299,2.382,1.015,4.65,2.031,6.821
		c1.541,3.29,3.69,6.119,6.462,8.476c2.205,1.873,4.657,3.321,7.361,4.342c2.958,1.117,6.021,1.611,9.182,1.603
		C36.594,95.432,43.287,95.444,49.979,95.444z"/>
	<path fill-rule="evenodd" clip-rule="evenodd" fill="#FFFFFF" d="M50.009,75.014C36.26,75.007,24.94,63.823,25.007,49.884
		c0.065-13.713,11.188-24.88,25.017-24.877c13.865,0.003,25.021,11.309,24.99,25.105C74.984,63.8,63.731,75.019,50.009,75.014z
		 M70.444,50.031c0.033-11.182-8.875-20.224-19.934-20.459c-11.77-0.251-20.714,9.03-20.943,19.946
		c-0.249,11.857,9.266,20.89,20.328,20.937C61.262,70.502,70.469,61.322,70.444,50.031z"/>
	<path fill-rule="evenodd" clip-rule="evenodd" fill="#FFFFFF" d="M77.28,27.28c-2.49,0.006-4.543-2.015-4.552-4.48
		c-0.011-2.552,2.018-4.611,4.545-4.614c2.45-0.003,4.488,2.028,4.554,4.425C81.892,25.108,79.829,27.32,77.28,27.28z"/>
</g>
</svg>
