<?xml version="1.0" encoding="utf-8"?>
<!-- Generator: Adobe Illustrator 16.0.0, SVG Export Plug-In . SVG Version: 6.00 Build 0)  -->
<!DOCTYPE svg PUBLIC "-//W3C//DTD SVG 1.1//EN" "http://www.w3.org/Graphics/SVG/1.1/DTD/svg11.dtd">
<svg version="1.1" id="圖層_1" xmlns="http://www.w3.org/2000/svg" xmlns:xlink="http://www.w3.org/1999/xlink" x="0px" y="0px"
	 width="100px" height="100px" viewBox="0 0 100 100" enable-background="new 0 0 100 100" xml:space="preserve">
<g>
	<path fill-rule="evenodd" clip-rule="evenodd" fill="#ffffff" d="M100,8.789c0,27.409,0,54.818,0,82.227
		c-0.064,0.182-0.151,0.359-0.191,0.547c-0.853,3.932-3.191,6.557-6.964,7.916c-0.537,0.193-1.089,0.349-1.634,0.521
		c-7.747,0-15.495,0-23.242,0c-0.824-0.633-1.366-1.376-1.364-2.505c0.02-12.204,0.01-24.409,0.016-36.614
		c0.001-1.767,0.798-2.535,2.577-2.537c3.189-0.004,6.379-0.027,9.567,0.019c0.762,0.011,1.079-0.251,1.296-0.95
		c0.65-2.105,1.369-4.189,2.06-6.283c0.114-0.347,0.22-0.697,0.355-1.131c-4.581,0-9.005,0.002-13.429-0.002
		c-1.57-0.001-2.417-0.813-2.424-2.393c-0.017-4.361-0.023-8.722,0.004-13.083c0.014-2.214,0.838-4.115,2.429-5.669
		c2.569-2.509,5.736-3.614,9.244-3.82c1.643-0.096,3.296-0.016,5.038-0.016c0-2.691,0.017-5.255-0.035-7.818
		c-0.004-0.185-0.506-0.51-0.781-0.514c-2.407-0.041-4.816-0.051-7.225-0.017c-4.205,0.06-7.971,1.423-11.248,4.041
		c-3.703,2.957-5.835,6.662-5.697,11.589c0.142,5.041,0.037,10.088,0.028,15.133c-0.002,1.776-0.799,2.567-2.546,2.568
		c-4.36,0.002-8.722,0.001-13.083,0.001c-0.341,0-0.682,0-1.093,0c0,2.555,0.027,4.959-0.016,7.364
		c-0.013,0.754,0.186,1.006,0.977,1c4.296-0.039,8.592-0.019,12.888-0.019c2.232,0.001,2.876,0.655,2.876,2.929
		c0.001,11.879-0.014,23.758,0.021,35.638c0.004,1.296-0.274,2.345-1.373,3.091c-16.081,0-32.161,0-48.242,0
		c-0.141-0.066-0.274-0.162-0.422-0.195c-3.773-0.848-6.348-3.092-7.754-6.68C0.369,92.502,0.203,91.85,0,91.211
		C0,63.736,0,36.263,0,8.789c0.069-0.172,0.161-0.34,0.205-0.519c0.927-3.828,3.236-6.419,6.944-7.753
		C7.688,0.323,8.242,0.171,8.789,0c27.474,0,54.948,0,82.422,0c0.173,0.069,0.339,0.162,0.519,0.205
		c3.871,0.935,6.461,3.289,7.792,7.035C99.702,7.748,99.842,8.272,100,8.789z M70.919,95.794c0.26,0.021,0.418,0.046,0.576,0.046
		c5.892,0.002,11.783,0.009,17.676-0.008c0.644-0.002,1.305-0.072,1.927-0.234c3.05-0.794,4.74-3.201,4.741-6.742
		c0.005-25.879,0.005-51.758-0.007-77.636c-0.001-0.773-0.049-1.572-0.239-2.316c-0.794-3.093-3.199-4.743-6.832-4.744
		c-25.846-0.002-51.691-0.003-77.537,0.01c-0.806,0-1.639,0.056-2.41,0.263C5.777,5.246,4.16,7.643,4.16,11.235
		C4.157,37.081,4.156,62.928,4.169,88.773c0.001,0.805,0.056,1.637,0.262,2.41c0.797,2.982,3.17,4.651,6.604,4.654
		c14.063,0.012,28.125,0.006,42.187,0.002c0.28,0,0.561-0.039,0.82-0.059c0-11.14,0-22.188,0-33.283
		c-4.727,0-9.378,0.001-14.03-0.002c-1.778,0-2.507-0.715-2.508-2.467c-0.004-3.905-0.003-7.812,0-11.718
		c0.001-1.763,0.711-2.466,2.499-2.467c4.329-0.004,8.658-0.001,12.988-0.001c0.348,0,0.695,0,1.126,0c0-0.479,0-0.832,0-1.184
		c0-4.297-0.043-8.594,0.023-12.89c0.022-1.45,0.173-2.932,0.517-4.338c2.088-8.554,11.212-14.625,19.53-14.906
		c3.674-0.124,7.355-0.028,11.034-0.019c1.487,0.003,2.271,0.8,2.273,2.307c0.007,4.004,0.007,8.008,0,12.012
		c-0.003,1.559-0.767,2.319-2.346,2.331c-1.822,0.013-3.646-0.021-5.468,0.009c-2.549,0.042-4.972,0.55-7.056,2.128
		c-1.147,0.869-1.789,1.97-1.762,3.494c0.061,3.319,0.018,6.64,0.021,9.96c0,0.343,0.029,0.685,0.049,1.096c0.392,0,0.68,0,0.968,0
		c4.427,0,8.854-0.011,13.28,0.006c1.779,0.007,2.696,1.247,2.149,2.923c-1.316,4.039-2.655,8.069-4.009,12.095
		c-0.403,1.201-1.063,1.627-2.349,1.629c-2.507,0.004-5.013,0.002-7.52,0.002c-0.835,0-1.669,0-2.536,0
		C70.919,73.646,70.919,84.673,70.919,95.794z"/>
</g>
</svg>
