<?xml version="1.0" encoding="utf-8"?>
<!-- Generator: Adobe Illustrator 16.0.0, SVG Export Plug-In . SVG Version: 6.00 Build 0)  -->
<!DOCTYPE svg PUBLIC "-//W3C//DTD SVG 1.1//EN" "http://www.w3.org/Graphics/SVG/1.1/DTD/svg11.dtd">
<svg version="1.1" id="圖層_1" xmlns="http://www.w3.org/2000/svg" xmlns:xlink="http://www.w3.org/1999/xlink" x="0px" y="0px"
	 width="100px" height="100px" viewBox="0 0 100 100" enable-background="new 0 0 100 100" xml:space="preserve">
<g>
	<path fill-rule="evenodd" clip-rule="evenodd" fill="#FFFFFF" d="M49.92,10.365c12.073,1.196,24.029,2.169,35.923,3.645
		c6.393,0.794,11.049,5.917,12.131,12.315c2.714,16.062,2.69,32.136-0.004,48.198c-1.055,6.28-5.885,11.222-12.268,12.239
		c-14.224,2.267-28.546,3.428-42.95,2.613c-8.513-0.482-17.013-1.289-25.498-2.154C7.479,86.224,2.743,81.157,1.438,71.241
		C-0.239,58.514-0.528,45.795,0.99,33.049c0.338-2.842,0.702-5.723,1.491-8.46c1.655-5.742,5.468-9.771,11.426-10.528
		C25.879,12.541,37.921,11.564,49.92,10.365z M52.101,17.531c-11.037,0.964-23.665,2.009-36.279,3.206
		c-3.433,0.326-6.151,2.927-6.702,6.37c-0.76,4.749-1.391,9.534-1.746,14.328c-0.794,10.755-0.32,21.475,1.728,32.082
		c0.689,3.572,3.347,6.026,6.93,6.478c6.118,0.771,12.246,1.541,18.392,2.021c16.52,1.294,32.965,0.32,49.351-1.971
		c3.78-0.529,6.54-2.984,7.136-6.837c0.735-4.753,1.373-9.536,1.719-14.332c0.763-10.588,0.239-21.139-1.737-31.583
		c-0.69-3.643-3.319-6.192-6.831-6.569C73.979,19.64,63.883,18.696,52.101,17.531z"/>
	<path fill-rule="evenodd" clip-rule="evenodd" fill="#FFFFFF" d="M35.945,68.031c0-11.905,0-23.451,0-35.369
		c11.861,5.929,23.471,11.731,35.38,17.685C59.399,56.308,47.8,62.105,35.945,68.031z"/>
</g>
</svg>
