<?xml version="1.0" encoding="utf-8"?>
<!-- Generator: Adobe Illustrator 16.0.0, SVG Export Plug-In . SVG Version: 6.00 Build 0)  -->
<!DOCTYPE svg PUBLIC "-//W3C//DTD SVG 1.1//EN" "http://www.w3.org/Graphics/SVG/1.1/DTD/svg11.dtd">
<svg version="1.1" id="圖層_1" xmlns="http://www.w3.org/2000/svg" xmlns:xlink="http://www.w3.org/1999/xlink" x="0px" y="0px"
	 width="100px" height="100px" viewBox="0 0 100 100" enable-background="new 0 0 100 100" xml:space="preserve">
<g>
	<path fill-rule="evenodd" clip-rule="evenodd" fill="#FFFFFF" d="M50.051,0.005c12.241,0,24.479-0.011,36.72,0.003
		c8.32,0.01,13.221,4.88,13.223,13.141c0.009,24.56,0.009,49.119,0.001,73.678c-0.003,8.271-4.922,13.168-13.211,13.17
		c-24.56,0.003-49.119,0.004-73.679-0.001C4.959,99.994,0.01,95.074,0.007,86.959c-0.009-24.639-0.009-49.277,0-73.916
		C0.01,4.931,4.934,0.021,13.093,0.009C25.413-0.009,37.732,0.005,50.051,0.005z M49.993,4.62c-12.394,0-24.787-0.007-37.18,0.004
		c-5.436,0.005-8.19,2.769-8.191,8.201c-0.005,24.787-0.005,49.572,0,74.359c0.001,5.426,2.77,8.193,8.203,8.195
		c24.785,0.006,49.572,0.006,74.357,0c5.424-0.002,8.195-2.777,8.195-8.208c0.006-24.785,0.006-49.571,0-74.358
		c0-5.423-2.765-8.185-8.206-8.19C74.778,4.613,62.386,4.62,49.993,4.62z"/>
	<path fill-rule="evenodd" clip-rule="evenodd" fill="#FFFFFF" d="M51.786,14.337c10.173,0.35,20.861,3.798,29.14,12.901
		c8.254,9.078,8.988,20.313,2.957,30.943c-4.906,8.646-12.751,13.892-20.448,19.375c-3.796,2.704-7.958,4.904-12.014,7.23
		c-1.689,0.969-3.541,1.507-5.368,0.172c-1.787-1.306-1.536-3.11-1.263-4.971c0.605-4.134,0.58-4.147-3.419-4.938
		c-8.722-1.723-16.442-5.371-22.385-12.135c-10.08-11.473-9.255-26.884,1.887-37.594C28.094,18.382,38.819,14.337,51.786,14.337z
		 M49.483,80.42c0.437-0.094,0.69-0.091,0.883-0.197c10.105-5.615,19.787-11.856,27.385-20.719
		c8.509-9.923,7.448-22.645-2.316-31.396c-13.759-12.331-37.282-12.387-50.921,0.07c-6.169,5.635-9.299,12.63-7.506,21.161
		c1.71,8.132,6.868,13.768,14.068,17.278c4.206,2.051,8.915,3.155,13.486,4.34c4.211,1.091,5.735,2.997,5.081,7.315
		C49.54,78.949,49.539,79.64,49.483,80.42z"/>
	<path fill-rule="evenodd" clip-rule="evenodd" fill="#FFFFFF" d="M54.848,44.618c0-1.95,0.01-3.9-0.003-5.851
		c-0.01-1.644,0.61-2.934,2.383-2.895c1.621,0.035,2.234,1.272,2.232,2.814c-0.005,4.36,0.101,8.725-0.083,13.077
		c-0.04,0.951-0.917,2.282-1.754,2.647c-0.595,0.26-2.075-0.583-2.626-1.328c-1.642-2.221-3.02-4.637-5.074-6.936
		c0,1.728-0.032,3.457,0.01,5.182c0.041,1.68-0.383,3.224-2.27,3.266c-1.896,0.042-2.378-1.46-2.364-3.162
		c0.03-4.122-0.117-8.251,0.094-12.363c0.057-1.095,1.148-2.136,1.765-3.203c0.976,0.646,2.229,1.09,2.872,1.976
		c1.575,2.171,2.867,4.546,4.273,6.84C54.484,44.661,54.666,44.64,54.848,44.618z"/>
	<path fill-rule="evenodd" clip-rule="evenodd" fill="#FFFFFF" d="M66.7,40.386c0,0.941,0,1.559,0,2.211
		c0.222,0.1,0.426,0.264,0.639,0.274c0.87,0.043,1.745,0.068,2.616,0.047c1.758-0.042,3.683,0.049,3.691,2.296
		c0.009,2.229-1.876,2.396-3.658,2.332c-1.018-0.037-2.038-0.007-3.21-0.007c-0.063,0.84-0.111,1.511-0.161,2.185
		c0.326,0.139,0.534,0.296,0.747,0.305c0.95,0.039,1.904,0.069,2.854,0.042c1.729-0.05,3.451,0.239,3.436,2.322
		c-0.015,2.058-1.712,2.361-3.453,2.311c-1.745-0.051-3.492-0.02-5.237-0.011c-1.951,0.011-2.953-0.947-2.958-2.898
		c-0.01-4.365-0.001-8.729-0.005-13.094c-0.001-1.958,0.981-2.924,2.93-2.926c1.984-0.002,3.968,0,5.951,0
		c1.55-0.001,2.787,0.645,2.788,2.261c0.001,1.745-1.288,2.386-2.94,2.355C69.471,40.367,68.212,40.386,66.7,40.386z"/>
	<path fill-rule="evenodd" clip-rule="evenodd" fill="#FFFFFF" d="M28.461,50.087c1.667,0,3.155-0.283,4.456,0.09
		c1.008,0.29,2.371,1.294,2.524,2.166c0.266,1.527-1.03,2.336-2.606,2.345c-2.064,0.012-4.129,0.02-6.194-0.002
		c-1.845-0.019-2.776-1.008-2.784-2.826c-0.018-4.368,0-8.734-0.009-13.102c-0.003-1.649,0.623-2.936,2.399-2.885
		c1.623,0.047,2.221,1.294,2.217,2.838C28.456,42.42,28.461,46.129,28.461,50.087z"/>
	<path fill-rule="evenodd" clip-rule="evenodd" fill="#FFFFFF" d="M42.768,45.463c0,2.066-0.011,4.132,0.004,6.197
		c0.013,1.644-0.612,2.959-2.363,2.942c-1.6-0.015-2.255-1.25-2.254-2.807c0.007-4.371,0.007-8.741,0-13.111
		c-0.002-1.551,0.61-2.785,2.238-2.813c1.778-0.03,2.387,1.275,2.378,2.916C42.761,41.013,42.768,43.238,42.768,45.463z"/>
</g>
</svg>
