<?xml version="1.0" encoding="utf-8"?>
<!-- Generator: Adobe Illustrator 16.0.0, SVG Export Plug-In . SVG Version: 6.00 Build 0)  -->
<!DOCTYPE svg PUBLIC "-//W3C//DTD SVG 1.1//EN" "http://www.w3.org/Graphics/SVG/1.1/DTD/svg11.dtd">
<svg version="1.1" xmlns="http://www.w3.org/2000/svg" xmlns:xlink="http://www.w3.org/1999/xlink" x="0px" y="0px" width="18px"
	 height="18px" viewBox="0 0 18 18" enable-background="new 0 0 18 18" xml:space="preserve">
<g id="footer">
</g>
<g id="選項">
	<g>
		<path d="M10.708,17H7.407c-0.163,0-0.32-0.065-0.436-0.181c-0.115-0.114-0.18-0.272-0.18-0.435l0.001-1.89l-1.372,1.37
			c-0.115,0.115-0.272,0.18-0.435,0.18l0,0c-0.164,0-0.32-0.064-0.436-0.18l-2.333-2.334c-0.24-0.24-0.24-0.63,0-0.87l1.337-1.337
			H1.615C1.275,11.324,1,11.049,1,10.709V7.407c0-0.34,0.275-0.615,0.615-0.615h1.891L2.135,5.421
			c-0.115-0.115-0.18-0.271-0.18-0.436c0-0.163,0.065-0.319,0.18-0.435l2.335-2.334c0.115-0.115,0.271-0.181,0.435-0.181
			c0,0,0,0,0,0c0.163,0,0.32,0.065,0.436,0.181l1.335,1.338V1.615C6.676,1.276,6.952,1,7.292,1h3.301
			c0.34,0,0.616,0.276,0.616,0.615v1.892l1.371-1.371c0.23-0.231,0.638-0.232,0.87,0l2.333,2.334c0.24,0.24,0.24,0.629,0,0.87
			l-1.337,1.337l1.938-0.001c0,0,0,0,0,0c0.163,0,0.32,0.065,0.435,0.181C16.935,6.973,17,7.129,17,7.292v3.301
			c0,0.34-0.275,0.615-0.615,0.615h-1.891l1.371,1.371c0.24,0.24,0.24,0.63,0,0.87l-2.333,2.336c-0.231,0.23-0.639,0.23-0.87,0
			l-1.337-1.339v1.938C11.324,16.724,11.048,17,10.708,17z M8.023,15.77h2.07v-2.81c0-0.249,0.15-0.474,0.38-0.569
			c0.229-0.094,0.495-0.042,0.67,0.135l1.953,1.954l1.463-1.465l-1.987-1.987c-0.176-0.176-0.229-0.439-0.133-0.67
			c0.095-0.229,0.32-0.38,0.568-0.38h2.761v-2.07L12.96,7.909c0,0,0,0,0,0c-0.249,0-0.473-0.15-0.568-0.381
			c-0.096-0.229-0.043-0.493,0.133-0.67l1.953-1.954l-1.463-1.463l-1.986,1.987c-0.175,0.177-0.441,0.228-0.671,0.134
			c-0.23-0.096-0.38-0.319-0.38-0.568V2.23h-2.07v2.811c0,0.249-0.15,0.474-0.38,0.568c-0.228,0.094-0.494,0.043-0.67-0.134
			L4.905,3.522L3.441,4.985l1.986,1.987c0.176,0.176,0.229,0.439,0.133,0.67c-0.095,0.229-0.32,0.38-0.568,0.38H2.231v2.071H5.04
			c0.249,0,0.473,0.15,0.568,0.38c0.096,0.229,0.042,0.495-0.133,0.671l-1.953,1.952l1.463,1.463l1.988-1.986
			c0.176-0.177,0.44-0.229,0.67-0.133c0.23,0.095,0.38,0.319,0.38,0.567L8.023,15.77z"/>
		<path d="M9,11.623c-1.445,0-2.622-1.177-2.622-2.623S7.555,6.377,9,6.377c1.447,0,2.623,1.177,2.623,2.623S10.447,11.623,9,11.623
			z M9,7.607C8.233,7.607,7.609,8.232,7.609,9S8.233,10.393,9,10.393c0.768,0,1.393-0.625,1.393-1.393S9.768,7.607,9,7.607z"/>
	</g>
</g>
<g id="navbar">
</g>
<g id="參考線">
</g>
</svg>
