<?xml version="1.0" encoding="utf-8"?>
<!-- Generator: Adobe Illustrator 16.0.0, SVG Export Plug-In . SVG Version: 6.00 Build 0)  -->
<!DOCTYPE svg PUBLIC "-//W3C//DTD SVG 1.1//EN" "http://www.w3.org/Graphics/SVG/1.1/DTD/svg11.dtd">
<svg version="1.1" xmlns="http://www.w3.org/2000/svg" xmlns:xlink="http://www.w3.org/1999/xlink" x="0px" y="0px" width="18px"
	 height="18px" viewBox="0 0 18 18" enable-background="new 0 0 18 18" xml:space="preserve">
<g id="footer">
</g>
<g id="選項">
	<g>
		<path d="M6.799,17H3.003c-0.378,0-0.685-0.308-0.685-0.686V1.686C2.318,1.308,2.625,1,3.003,1h11.57
			c0.379,0,0.686,0.308,0.686,0.686v9.522c0,0.38-0.307,0.687-0.686,0.687c-0.378,0-0.686-0.307-0.686-0.687V2.371H3.689v13.258
			h3.109c0.379,0,0.686,0.307,0.686,0.686C7.485,16.692,7.178,17,6.799,17z"/>
		<rect x="5.097" y="4.611" width="7.475" height="1.372"/>
		<rect x="5.097" y="7.554" width="7.475" height="1.372"/>
		<path d="M10.892,15.321c-0.605,0-1.196-0.212-1.665-0.599c-0.54-0.445-0.874-1.075-0.94-1.77
			c-0.067-0.697,0.142-1.377,0.587-1.917c0.885-1.071,2.612-1.237,3.685-0.351c0.539,0.443,0.874,1.073,0.94,1.768
			c0.066,0.697-0.142,1.377-0.587,1.917C12.413,14.974,11.677,15.321,10.892,15.321z M10.894,11.457
			c-0.374,0-0.725,0.166-0.962,0.453c-0.212,0.258-0.311,0.579-0.279,0.913c0.031,0.329,0.19,0.63,0.448,0.842
			c0.515,0.425,1.331,0.346,1.754-0.169c0.211-0.257,0.311-0.579,0.279-0.912c-0.032-0.33-0.19-0.629-0.447-0.843
			C11.46,11.554,11.187,11.457,10.894,11.457z"/>
		<rect x="12.019" y="14.261" transform="matrix(0.7712 0.6365 -0.6365 0.7712 12.6279 -5.2457)" width="3.186" height="1.37"/>
	</g>
</g>
<g id="navbar">
</g>
<g id="參考線">
</g>
</svg>
