<?xml version="1.0" encoding="utf-8"?>
<!-- Generator: Adobe Illustrator 16.0.0, SVG Export Plug-In . SVG Version: 6.00 Build 0)  -->
<!DOCTYPE svg PUBLIC "-//W3C//DTD SVG 1.1//EN" "http://www.w3.org/Graphics/SVG/1.1/DTD/svg11.dtd">
<svg version="1.1" xmlns="http://www.w3.org/2000/svg" xmlns:xlink="http://www.w3.org/1999/xlink" x="0px" y="0px" width="18px"
	 height="18px" viewBox="0 0 18 18" enable-background="new 0 0 18 18" xml:space="preserve">
<g id="footer">
</g>
<g id="選項">
	<g>
		<path d="M8.994,16.096L8.51,15.661c-0.084-0.074-0.183-0.161-0.275-0.253l-2.032-2.044c-1.277-1.282-2.553-2.565-3.833-3.847
			C1.016,8.158,0.65,6.476,1.341,4.781c0.732-1.793,2.188-2.813,4.103-2.87L5.576,1.91c1.118,0,2.135,0.427,2.941,1.239
			C8.669,3.302,8.82,3.458,8.974,3.618c0.243-0.228,0.477-0.444,0.719-0.651c0.818-0.694,1.794-1.063,2.821-1.063
			c1.191,0,2.326,0.5,3.196,1.412c1.705,1.784,1.721,4.338,0.038,6.072c-1.306,1.348-2.634,2.674-3.961,4l-0.969,0.969
			c-0.32,0.321-0.651,0.632-0.99,0.95L8.994,16.096z M5.576,3.107L5.479,3.109C4.048,3.151,3,3.887,2.45,5.234
			C1.938,6.491,2.197,7.646,3.219,8.672c1.279,1.279,2.557,2.564,3.833,3.849l1.929,1.938l0.026-0.022
			c0.33-0.311,0.651-0.612,0.963-0.925l0.97-0.969c1.324-1.323,2.647-2.645,3.949-3.986c1.217-1.255,1.199-3.111-0.044-4.411
			c-1.194-1.25-3.08-1.367-4.376-0.265C10.226,4.087,9.994,4.304,9.75,4.531L8.925,5.292L8.248,4.59
			C8.051,4.386,7.86,4.188,7.667,3.993C7.083,3.404,6.38,3.107,5.576,3.107z"/>
	</g>
</g>
<g id="navbar">
</g>
<g id="參考線">
</g>
</svg>
