<?xml version="1.0" encoding="utf-8"?>
<!-- Generator: Adobe Illustrator 16.0.0, SVG Export Plug-In . SVG Version: 6.00 Build 0)  -->
<!DOCTYPE svg PUBLIC "-//W3C//DTD SVG 1.1//EN" "http://www.w3.org/Graphics/SVG/1.1/DTD/svg11.dtd">
<svg version="1.1" xmlns="http://www.w3.org/2000/svg" xmlns:xlink="http://www.w3.org/1999/xlink" x="0px" y="0px" width="40px"
	 height="40px" viewBox="0 0 40 40" enable-background="new 0 0 40 40" xml:space="preserve">
<g id="圖層_1">
	<g>
		<rect x="-277.5" y="343.5" width="80" height="80"/>
		<line fill="none" stroke="#E1E0E0" stroke-miterlimit="10" x1="-2100.5" y1="423.5" x2="-197.5" y2="423.5"/>
		<line fill="none" stroke="#E1E0E0" stroke-miterlimit="10" x1="-277" y1="343.5" x2="-277" y2="423.5"/>
		<line fill="none" stroke="#E1E0E0" stroke-miterlimit="10" x1="-357" y1="343.5" x2="-357" y2="423.5"/>
		<line fill="none" stroke="#E1E0E0" stroke-miterlimit="10" x1="-437" y1="343.5" x2="-437" y2="423.5"/>
		<line fill="none" stroke="#E1E0E0" stroke-miterlimit="10" x1="-1923.5" y1="343.5" x2="-1923.5" y2="423.5"/>
		<path fill-rule="evenodd" clip-rule="evenodd" fill="#231815" d="M-322.758,372.109c0-0.585-0.031-1.154,0.006-1.719
			c0.168-2.505,2.193-4.566,4.662-4.856c2.642-0.311,5.326,1.512,5.813,4.491c0.069,0.429,0.053,0.873,0.068,1.31
			c0.009,0.249,0.002,0.5,0.002,0.804c0.265,0,0.493,0.009,0.724-0.001c1.639-0.07,2.725,1.329,2.709,2.746
			c-0.041,3.955-0.01,7.91-0.012,11.865c-0.002,1.631-1.1,2.747-2.711,2.748c-3.999,0.005-7.998-0.009-11.998,0.004
			c-1.728,0.005-2.749-1.386-2.732-2.781c0.045-3.955,0.031-7.91,0.006-11.865c-0.008-1.309,0.848-2.401,1.996-2.645
			C-323.782,372.117-323.316,372.143-322.758,372.109z M-322.796,373.84c-0.245,0-0.438,0-0.632,0
			c-0.773,0.004-1.108,0.332-1.109,1.105c-0.002,3.887-0.002,7.773,0.002,11.66c0,0.872,0.299,1.164,1.159,1.164
			c3.893,0,7.786,0,11.679,0c0.967,0,1.234-0.27,1.236-1.249c0-2.135,0-4.271,0-6.406c0-1.738,0.002-3.475-0.002-5.213
			c-0.002-0.623-0.301-1-0.84-1.051c-0.282-0.026-0.568-0.004-0.901-0.004c0.053,0.527-0.136,1.019,0.236,1.5
			c0.379,0.491,0.222,1.243-0.249,1.649c-0.487,0.422-1.166,0.428-1.652,0.017c-0.498-0.421-0.673-1.13-0.287-1.636
			c0.374-0.491,0.223-0.989,0.259-1.504c-2.421,0-4.802,0-7.181,0c-0.082,0.792-0.064,0.894,0.268,1.522
			c0.299,0.567,0.158,1.239-0.344,1.642c-0.479,0.382-1.164,0.367-1.625-0.035c-0.472-0.41-0.632-1.157-0.254-1.651
			C-322.663,374.866-322.846,374.376-322.796,373.84z M-321.172,372.111c2.5,0,4.881,0,7.309,0
			c-0.031-0.627-0.018-1.227-0.099-1.813c-0.229-1.666-1.647-2.985-3.262-3.079c-1.735-0.102-3.315,0.986-3.716,2.654
			C-321.11,370.583-321.098,371.337-321.172,372.111z"/>
		<path fill="#231815" d="M-394.467,383.408c2.153-1.085,3.519-3.229,3.519-5.595c0-3.481-2.938-6.313-6.552-6.313
			c-3.612,0-6.551,2.832-6.551,6.313c0,2.355,1.357,4.496,3.498,5.584c-0.646,0.411-1.254,0.955-1.812,1.622
			c-1.935,2.315-3.045,5.835-3.045,9.657c0,0.454,0.382,0.824,0.851,0.824h14.115c0.47,0,0.853-0.37,0.853-0.824
			C-389.591,389.721-391.531,385.283-394.467,383.408z M-397.5,384.126c3.25,0,5.937,4.25,6.188,9.725h-12.374
			c0.148-3.082,1.129-5.979,2.646-7.796C-399.985,384.794-398.762,384.126-397.5,384.126z M-397.5,373.148
			c2.674,0,4.849,2.093,4.849,4.665c0,2.572-2.175,4.665-4.849,4.665s-4.849-2.093-4.849-4.665
			C-402.349,375.241-400.174,373.148-397.5,373.148z"/>
		<g>
			<rect x="-249.5" y="371.5" fill="#FFFFFF" width="24" height="1.8"/>
			<rect x="-249.5" y="382.6" fill="#FFFFFF" width="24" height="1.8"/>
			<rect x="-249.5" y="393.7" fill="#FFFFFF" width="24" height="1.8"/>
		</g>
		<g>
			<g>
				<path fill-rule="evenodd" clip-rule="evenodd" fill="#CC0033" d="M-305.5,414.5c0,1.65-1.35,3-3,3h-18c-1.65,0-3-1.35-3-3v-18
					c0-1.65,1.35-3,3-3h18c1.65,0,3,1.35,3,3V414.5z"/>
			</g>
			<g>
				<path fill="#FFFFFF" d="M-313.349,410.672v1.616h-9.052c-0.014-0.404,0.053-0.794,0.195-1.168c0.23-0.616,0.6-1.224,1.107-1.821
					s1.24-1.289,2.2-2.074c1.488-1.221,2.494-2.188,3.018-2.9c0.522-0.713,0.784-1.388,0.784-2.022c0-0.667-0.238-1.229-0.715-1.687
					s-1.098-0.687-1.863-0.687c-0.81,0-1.457,0.243-1.943,0.729c-0.485,0.486-0.731,1.158-0.738,2.018l-1.728-0.177
					c0.118-1.289,0.563-2.271,1.336-2.947s1.81-1.014,3.11-1.014c1.314,0,2.354,0.364,3.121,1.093
					c0.766,0.729,1.148,1.632,1.148,2.709c0,0.548-0.111,1.087-0.336,1.616s-0.597,1.087-1.117,1.672
					c-0.52,0.586-1.384,1.39-2.592,2.41c-1.009,0.848-1.656,1.422-1.943,1.724c-0.286,0.303-0.523,0.606-0.71,0.911H-313.349z"/>
			</g>
		</g>
		<rect x="-2100.5" y="343.5" width="177" height="80"/>
		<g>
			<g>
				<path fill="#FFFFFF" d="M-2079.245,392.017c0-0.485,0.066-0.927,0.198-1.323s0.154-0.903,0.066-1.521
					c1.366-2.911,2.921-5.611,4.664-8.104c1.742-2.491,3.826-4.685,6.251-6.582c0.397-0.308,0.716-0.628,0.959-0.959
					c0.242-0.331,0.485-0.65,0.728-0.959c0.242-0.308,0.518-0.583,0.827-0.827c0.308-0.242,0.705-0.407,1.191-0.496
					c1.102-1.278,2.425-2.448,3.969-3.506c1.543-1.058,3.153-2.072,4.829-3.042c1.676-0.97,3.362-1.962,5.061-2.977
					c1.697-1.014,3.23-2.117,4.598-3.308c0.485,0.309,0.871,0.409,1.158,0.298c0.286-0.109,0.584-0.121,0.893-0.033
					c0.397,0.838,0.915,1.422,1.555,1.753c0.639,0.33,1.3,0.661,1.984,0.992c0.683,0.331,1.323,0.728,1.918,1.19
					c0.595,0.463,1.047,1.092,1.356,1.885c-0.309,0-0.453,0.111-0.43,0.332c0.021,0.221,0.076,0.463,0.165,0.727
					c0.088,0.265,0.132,0.508,0.132,0.728c0,0.221-0.198,0.331-0.595,0.331c0,0.31,0.154,0.463,0.463,0.463
					c0.308,0,0.463,0.155,0.463,0.463c0,0.265-0.056,0.475-0.166,0.629c-0.11,0.155-0.122,0.408-0.033,0.761
					c-1.058,0.706-2.239,1.378-3.539,2.017c-1.301,0.64-2.668,1.313-4.101,2.018c-1.434,0.706-2.889,1.467-4.366,2.282
					c-1.478,0.817-2.944,1.753-4.399,2.812c-1.456,1.058-2.922,2.227-4.399,3.506c-1.478,1.28-2.9,2.635-4.267,4.068
					c-1.368,1.434-2.646,2.91-3.837,4.432c-1.19,1.521-2.206,3.011-3.043,4.466c0.088,0.221,0.209,0.42,0.364,0.596
					c0.154,0.177,0.275,0.375,0.364,0.595c1.676,0.089,3.242,0.078,4.697-0.033c1.456-0.109,2.911-0.01,4.366,0.298
					c0.176-0.132,0.286-0.308,0.331-0.529c0.043-0.22,0.176-0.374,0.397-0.463c2.999-0.308,5.799-0.804,8.401-1.488
					c2.602-0.684,5.248-1.378,7.938-2.084c-0.794-0.308-1.5-0.551-2.117-0.728c-0.265-0.265-0.254-0.496,0.033-0.694
					c0.286-0.198,0.518-0.407,0.694-0.629c-0.706-0.396-1.29-0.926-1.753-1.588c-0.463-0.661-0.739-1.521-0.827-2.58
					c0.308-0.264,0.463-0.572,0.463-0.926c0-0.352-0.155-0.639-0.463-0.859c-0.221-0.088-0.354-0.088-0.397,0
					c-0.044,0.087-0.078,0.175-0.099,0.263c-0.023,0.09-0.066,0.178-0.132,0.266c-0.066,0.088-0.188,0.088-0.364,0
					c0.043-0.485,0.154-0.881,0.331-1.191c0.176-0.308,0.308-0.683,0.397-1.125l5.491-3.638c0.572,0.441,1.278,0.904,2.117,1.389
					c0.837,0.486,1.72,0.971,2.646,1.456c0.926,0.486,1.874,0.982,2.845,1.488c0.969,0.507,1.874,1.004,2.712,1.488
					c0.794,0.354,1.477,0.783,2.051,1.29c0.573,0.507,1.125,1.037,1.654,1.588c0.529,0.552,1.059,1.091,1.588,1.62
					c0.529,0.529,1.168,0.971,1.918,1.323c-0.089,0.706-0.044,1.28,0.132,1.72c0.176,0.441,0.22,0.971,0.132,1.588
					c-0.838,1.5-1.852,2.769-3.043,3.804c-1.19,1.037-2.525,1.93-4.002,2.68c-1.478,0.75-3.054,1.379-4.73,1.885
					c-1.676,0.508-3.396,0.992-5.16,1.455c-1.765,0.464-3.539,0.949-5.325,1.456s-3.539,1.091-5.259,1.753
					c-0.75,0-1.389,0.022-1.918,0.066c-0.529,0.044-1.037,0.11-1.521,0.198c-0.486,0.089-0.97,0.177-1.455,0.265
					c-0.486,0.089-1.015,0.154-1.588,0.198c-0.221-0.044-0.364,0-0.43,0.132c-0.066,0.133-0.166,0.243-0.298,0.331
					c-0.883,0.133-1.676,0.198-2.381,0.198c-0.706,0-1.301,0-1.786,0c-0.618,0-1.257,0.089-1.918,0.265s-1.28,0.242-1.852,0.198
					c-3.969-0.175-7.079-1.587-9.328-4.233c-2.249-2.646-3.484-6.284-3.705-10.915c0.043-0.22,0-0.363-0.132-0.43
					S-2079.157,392.105-2079.245,392.017z"/>
				<path fill="#FFFFFF" d="M-1993.19,403.593c-0.195,0.554-0.48,1.115-0.854,1.685c-0.375,0.57-0.814,1.074-1.318,1.514
					c-0.505,0.439-1.066,0.806-1.685,1.099c-0.619,0.293-1.27,0.455-1.953,0.488c-0.423-0.098-0.708-0.204-0.854-0.317
					c-0.146-0.114-0.301-0.22-0.464-0.317c-0.098-0.064-0.188-0.122-0.269-0.171c-0.082-0.049-0.155-0.089-0.22-0.122l-0.586-0.244
					l0.195-0.635c0.065-0.26,0.049-0.464-0.049-0.61s-0.293-0.35-0.586-0.61c-0.098-0.098-0.195-0.195-0.293-0.293
					s-0.179-0.195-0.244-0.293l-0.83-0.928l1.318-0.342c0.813-0.228,1.359-0.521,1.636-0.879c0.276-0.357,0.382-0.96,0.317-1.807
					c-0.651-0.13-1.196-0.146-1.636-0.049s-0.887,0.212-1.343,0.342c-0.586,0.163-1.18,0.302-1.782,0.415
					c-0.603,0.114-1.262,0.171-1.978,0.171c-0.261,0-0.505-0.008-0.732-0.024c-0.228-0.016-0.472-0.04-0.732-0.073l-0.488-0.098
					c-0.065-0.357-0.13-0.562-0.195-0.61c-0.065-0.049-0.13-0.105-0.195-0.171c-0.163-0.162-0.334-0.382-0.513-0.659
					c-0.179-0.276-0.22-0.626-0.122-1.05c-0.163-0.293-0.261-0.586-0.293-0.879c-0.195,0.391-0.342,0.798-0.439,1.221l-0.195,0.488
					l-0.488,0.098c-0.065,0.033-0.114,0.106-0.146,0.22c-0.033,0.114-0.049,0.204-0.049,0.269l-0.244,0.83
					c-0.065,0.065-0.13,0.122-0.195,0.171c-0.065,0.049-0.13,0.106-0.195,0.171c-0.065,0.293-0.146,0.586-0.244,0.879
					s-0.195,0.57-0.293,0.83c-0.163,0.424-0.301,0.839-0.415,1.245c-0.114,0.407-0.155,0.806-0.122,1.196l-0.195,0.537
					c-0.163,0.195-0.342,0.351-0.537,0.464c-0.195,0.114-0.391,0.22-0.586,0.317c-0.065,0.065-0.155,0.122-0.269,0.171
					c-0.114,0.049-0.204,0.09-0.269,0.122l-0.146,0.537l-0.586,0.098c-0.358,0.064-0.61,0.113-0.757,0.146
					c-0.146,0.032-0.317,0.049-0.513,0.049l-0.488-0.049c-0.358-0.293-0.635-0.528-0.83-0.708c-0.195-0.179-0.423-0.35-0.684-0.513
					c-0.293-0.391-0.456-0.684-0.488-0.879c-0.032-0.195-0.065-0.374-0.098-0.537c-0.065-0.195-0.105-0.357-0.122-0.488
					c-0.016-0.13-0.057-0.228-0.122-0.293l-0.635-0.586l0.537-0.439l0.049-0.83c0.651-1.66,1.343-3.255,2.075-4.785
					c0.732-1.529,1.489-3.092,2.271-4.688c0.26-0.521,0.513-1.041,0.757-1.563c0.244-0.521,0.496-1.041,0.757-1.563
					c-0.033-0.098-0.049-0.211-0.049-0.342c0-0.13,0.032-0.276,0.098-0.439c0.358-0.553,0.651-1.05,0.879-1.489
					c0.228-0.439,0.456-0.887,0.684-1.343c0.26-0.553,0.529-1.09,0.806-1.611c0.276-0.521,0.626-1.058,1.05-1.611l0.781-0.342
					c0.098-0.032,0.211-0.073,0.342-0.122c0.13-0.049,0.276-0.073,0.439-0.073l0.732,0.098c0.911-0.423,1.709-1.017,2.393-1.782
					c0.684-0.765,1.383-1.685,2.1-2.759l0.488-0.684l0.635,0.391c0.163,0.098,0.391,0.188,0.684,0.268
					c0.293,0.082,0.602,0.171,0.928,0.269c0.586,0.13,1.139,0.277,1.66,0.439c0.521,0.163,0.944,0.407,1.27,0.732
					c0.195,0.521,0.309,0.912,0.342,1.172c0.032,0.261,0.081,0.521,0.146,0.781c0.098,0.554,0.187,1.106,0.269,1.66
					c0.081,0.553,0.138,1.171,0.171,1.855c0.163,0.554,0.301,1.099,0.415,1.636c0.114,0.537,0.22,1.083,0.317,1.636
					c0.163,0.781,0.325,1.538,0.488,2.271c0.163,0.732,0.374,1.425,0.635,2.075c0.26,0,0.423,0.017,0.488,0.049
					c0.163-0.064,0.333-0.113,0.513-0.146c0.179-0.032,0.382-0.064,0.61-0.098l0.537-0.049l0.195,0.488
					c0.032,0.163,0.195,0.326,0.488,0.488c0.423,0.033,0.732,0.122,0.928,0.269s0.374,0.302,0.537,0.464
					c0.13,0.131,0.26,0.229,0.391,0.293l0.732,0.293l-0.391,0.732c-0.326,0.586-0.79,1.147-1.392,1.685
					c-0.603,0.537-1.278,0.985-2.026,1.343c0.032,0.195,0.057,0.383,0.073,0.562c0.016,0.18,0.057,0.366,0.122,0.562
					c0.098,0.554,0.179,1.123,0.244,1.709c0.065,0.586,0.065,1.188,0,1.807L-1993.19,403.593z M-2007.301,395.146
					c0.977-0.064,1.863-0.138,2.661-0.22c0.797-0.081,1.685-0.22,2.661-0.415c-0.228-0.977-0.472-1.993-0.732-3.052
					c-0.261-1.058-0.537-2.107-0.83-3.149l-0.293,0.488c-0.651,0.684-1.278,1.449-1.88,2.295c-0.603,0.847-1.115,1.645-1.538,2.393
					c-0.195,0.293-0.391,0.586-0.586,0.879s-0.375,0.586-0.537,0.879c0.195-0.032,0.382-0.049,0.562-0.049
					C-2007.635,395.194-2007.464,395.179-2007.301,395.146z"/>
				<path fill="#FFFFFF" d="M-1979.616,404.276c0.163,0.977,0.105,1.742-0.171,2.295c-0.277,0.554-0.667,0.969-1.172,1.245
					c-0.505,0.276-1.083,0.431-1.733,0.464c-0.651,0.032-1.27,0-1.855-0.098c-0.326-0.456-0.619-1.025-0.879-1.709
					c-0.261-0.684-0.505-1.392-0.732-2.124c-0.228-0.732-0.432-1.456-0.61-2.173c-0.179-0.716-0.334-1.351-0.464-1.904
					c0.163-0.391,0.269-0.838,0.317-1.343c0.049-0.504,0.081-1.017,0.098-1.538c0.016-0.521,0.032-1.05,0.049-1.587
					c0.016-0.537,0.057-1.05,0.122-1.538c0.228-1.367,0.562-2.669,1.001-3.906c0.439-1.236,0.789-2.522,1.05-3.857
					c0.065-0.293,0.041-0.569-0.073-0.83c-0.114-0.26-0.139-0.504-0.073-0.732c0.032-0.13,0.13-0.22,0.293-0.269
					c0.163-0.049,0.26-0.154,0.293-0.317c0.098-0.357,0.122-0.65,0.073-0.878c-0.049-0.228,0.008-0.504,0.171-0.83
					c0.163-0.26,0.366-0.643,0.61-1.147c0.244-0.504,0.333-1.033,0.269-1.587c0.293-0.195,0.569-0.423,0.83-0.684
					c0.26-0.26,0.529-0.496,0.806-0.708c0.276-0.211,0.586-0.398,0.928-0.562c0.342-0.163,0.757-0.245,1.245-0.245
					c0.26,0.326,0.431,0.684,0.513,1.075c0.081,0.391,0.163,0.781,0.244,1.171c0.081,0.391,0.203,0.757,0.366,1.099
					c0.163,0.342,0.439,0.61,0.83,0.805c0,0.261,0,0.586,0,0.977s0.016,0.773,0.049,1.147c0.032,0.374,0.105,0.716,0.22,1.025
					c0.114,0.31,0.301,0.513,0.562,0.61c-0.586,1.563-1.131,3.109-1.636,4.639c-0.505,1.53-0.92,3.068-1.245,4.614
					c-0.326,1.547-0.529,3.101-0.61,4.663C-1980.015,401.103-1979.909,402.682-1979.616,404.276z"/>
				<path fill="#FFFFFF" d="M-1948.122,403.593c-0.195,0.554-0.48,1.115-0.854,1.685c-0.375,0.57-0.814,1.074-1.318,1.514
					c-0.505,0.439-1.066,0.806-1.685,1.099c-0.619,0.293-1.27,0.455-1.953,0.488c-0.423-0.098-0.708-0.204-0.854-0.317
					c-0.146-0.114-0.301-0.22-0.464-0.317c-0.098-0.064-0.188-0.122-0.269-0.171c-0.082-0.049-0.155-0.089-0.22-0.122l-0.586-0.244
					l0.195-0.635c0.065-0.26,0.049-0.464-0.049-0.61s-0.293-0.35-0.586-0.61c-0.098-0.098-0.195-0.195-0.293-0.293
					s-0.179-0.195-0.244-0.293l-0.83-0.928l1.318-0.342c0.813-0.228,1.359-0.521,1.636-0.879c0.276-0.357,0.382-0.96,0.317-1.807
					c-0.651-0.13-1.196-0.146-1.636-0.049s-0.887,0.212-1.343,0.342c-0.586,0.163-1.18,0.302-1.782,0.415
					c-0.603,0.114-1.262,0.171-1.978,0.171c-0.261,0-0.505-0.008-0.732-0.024c-0.228-0.016-0.472-0.04-0.732-0.073l-0.488-0.098
					c-0.065-0.357-0.13-0.562-0.195-0.61c-0.065-0.049-0.13-0.105-0.195-0.171c-0.163-0.162-0.334-0.382-0.513-0.659
					c-0.179-0.276-0.22-0.626-0.122-1.05c-0.163-0.293-0.261-0.586-0.293-0.879c-0.195,0.391-0.342,0.798-0.439,1.221l-0.195,0.488
					l-0.488,0.098c-0.065,0.033-0.114,0.106-0.146,0.22c-0.033,0.114-0.049,0.204-0.049,0.269l-0.244,0.83
					c-0.065,0.065-0.13,0.122-0.195,0.171c-0.065,0.049-0.13,0.106-0.195,0.171c-0.065,0.293-0.146,0.586-0.244,0.879
					s-0.195,0.57-0.293,0.83c-0.163,0.424-0.301,0.839-0.415,1.245c-0.114,0.407-0.155,0.806-0.122,1.196l-0.195,0.537
					c-0.163,0.195-0.342,0.351-0.537,0.464c-0.195,0.114-0.391,0.22-0.586,0.317c-0.065,0.065-0.155,0.122-0.269,0.171
					c-0.114,0.049-0.204,0.09-0.269,0.122l-0.146,0.537l-0.586,0.098c-0.358,0.064-0.61,0.113-0.757,0.146
					c-0.146,0.032-0.317,0.049-0.513,0.049l-0.488-0.049c-0.358-0.293-0.635-0.528-0.83-0.708c-0.195-0.179-0.423-0.35-0.684-0.513
					c-0.293-0.391-0.456-0.684-0.488-0.879c-0.032-0.195-0.065-0.374-0.098-0.537c-0.065-0.195-0.105-0.357-0.122-0.488
					c-0.016-0.13-0.057-0.228-0.122-0.293l-0.635-0.586l0.537-0.439l0.049-0.83c0.651-1.66,1.343-3.255,2.075-4.785
					c0.732-1.529,1.489-3.092,2.271-4.688c0.26-0.521,0.513-1.041,0.757-1.563c0.244-0.521,0.496-1.041,0.757-1.563
					c-0.033-0.098-0.049-0.211-0.049-0.342c0-0.13,0.032-0.276,0.098-0.439c0.358-0.553,0.651-1.05,0.879-1.489
					c0.228-0.439,0.456-0.887,0.684-1.343c0.26-0.553,0.529-1.09,0.806-1.611c0.276-0.521,0.626-1.058,1.05-1.611l0.781-0.342
					c0.098-0.032,0.211-0.073,0.342-0.122c0.13-0.049,0.276-0.073,0.439-0.073l0.732,0.098c0.911-0.423,1.709-1.017,2.393-1.782
					c0.684-0.765,1.383-1.685,2.1-2.759l0.488-0.684l0.635,0.391c0.163,0.098,0.391,0.188,0.684,0.268
					c0.293,0.082,0.602,0.171,0.928,0.269c0.586,0.13,1.139,0.277,1.66,0.439c0.521,0.163,0.944,0.407,1.27,0.732
					c0.195,0.521,0.309,0.912,0.342,1.172c0.032,0.261,0.081,0.521,0.146,0.781c0.098,0.554,0.187,1.106,0.269,1.66
					c0.081,0.553,0.138,1.171,0.171,1.855c0.163,0.554,0.301,1.099,0.415,1.636c0.114,0.537,0.22,1.083,0.317,1.636
					c0.163,0.781,0.325,1.538,0.488,2.271c0.163,0.732,0.374,1.425,0.635,2.075c0.26,0,0.423,0.017,0.488,0.049
					c0.163-0.064,0.333-0.113,0.513-0.146c0.179-0.032,0.382-0.064,0.61-0.098l0.537-0.049l0.195,0.488
					c0.032,0.163,0.195,0.326,0.488,0.488c0.423,0.033,0.732,0.122,0.928,0.269s0.374,0.302,0.537,0.464
					c0.13,0.131,0.26,0.229,0.391,0.293l0.732,0.293l-0.391,0.732c-0.326,0.586-0.79,1.147-1.392,1.685
					c-0.603,0.537-1.278,0.985-2.026,1.343c0.032,0.195,0.057,0.383,0.073,0.562c0.016,0.18,0.057,0.366,0.122,0.562
					c0.098,0.554,0.179,1.123,0.244,1.709c0.065,0.586,0.065,1.188,0,1.807L-1948.122,403.593z M-1962.233,395.146
					c0.977-0.064,1.863-0.138,2.661-0.22c0.797-0.081,1.685-0.22,2.661-0.415c-0.228-0.977-0.472-1.993-0.732-3.052
					c-0.261-1.058-0.537-2.107-0.83-3.149l-0.293,0.488c-0.651,0.684-1.278,1.449-1.88,2.295c-0.603,0.847-1.115,1.645-1.538,2.393
					c-0.195,0.293-0.391,0.586-0.586,0.879s-0.375,0.586-0.537,0.879c0.195-0.032,0.382-0.049,0.562-0.049
					C-1962.567,395.194-1962.396,395.179-1962.233,395.146z"/>
			</g>
		</g>
	</g>
	<path fill="#231815" d="M23.033,19.908c2.153-1.085,3.519-3.229,3.519-5.595C26.552,10.832,23.613,8,20,8
		c-3.612,0-6.551,2.832-6.551,6.313c0,2.355,1.357,4.496,3.498,5.584c-0.646,0.411-1.254,0.955-1.812,1.622
		c-1.935,2.315-3.045,5.835-3.045,9.657c0,0.454,0.382,0.824,0.851,0.824h14.115c0.47,0,0.853-0.37,0.853-0.824
		C27.909,26.221,25.969,21.783,23.033,19.908z"/>
</g>
<g id="參考線" display="none">
</g>
</svg>
