<?xml version="1.0" encoding="utf-8"?>
<!-- Generator: Adobe Illustrator 16.0.0, SVG Export Plug-In . SVG Version: 6.00 Build 0)  -->
<!DOCTYPE svg PUBLIC "-//W3C//DTD SVG 1.1//EN" "http://www.w3.org/Graphics/SVG/1.1/DTD/svg11.dtd">
<svg version="1.1" xmlns="http://www.w3.org/2000/svg" xmlns:xlink="http://www.w3.org/1999/xlink" x="0px" y="0px" width="38px"
	 height="38px" viewBox="0 0 38 38" enable-background="new 0 0 38 38" xml:space="preserve">
<g id="footer">
</g>
<g id="選項">
	<g>
		<g>
			<path d="M19,37C9.075,37,1,28.926,1,19C1,9.075,9.075,1,19,1s18,8.075,18,18C37,28.926,28.925,37,19,37z M19,1.467
				C9.332,1.467,1.467,9.332,1.467,19S9.332,36.533,19,36.533S36.533,28.668,36.533,19S28.668,1.467,19,1.467z"/>
		</g>
		<path fill-rule="evenodd" clip-rule="evenodd" d="M14.33,14.211c0-0.521-0.03-1.024,0.004-1.526
			c0.15-2.225,1.948-4.056,4.143-4.313c2.347-0.276,4.73,1.343,5.163,3.99c0.062,0.377,0.047,0.773,0.062,1.163
			c0.008,0.22,0.002,0.442,0.002,0.713c0.233,0,0.437,0.01,0.643-0.002c1.455-0.061,2.42,1.181,2.405,2.438
			c-0.036,3.514-0.009,7.027-0.01,10.542c0,1.448-0.978,2.439-2.408,2.439c-3.552,0.005-7.104-0.007-10.657,0.004
			c-1.535,0.003-2.441-1.229-2.43-2.47c0.043-3.514,0.029-7.026,0.008-10.54c-0.008-1.163,0.752-2.132,1.772-2.349
			C13.42,14.22,13.833,14.242,14.33,14.211z M14.295,15.749c-0.218,0-0.389,0-0.561,0c-0.686,0.004-0.984,0.294-0.985,0.982
			c-0.002,3.451-0.002,6.904,0.001,10.358c0,0.773,0.267,1.032,1.03,1.032c3.458,0,6.917,0,10.374,0
			c0.859,0,1.097-0.238,1.099-1.109c0-1.896,0-3.793,0-5.688c0-1.545,0.002-3.09-0.002-4.633c-0.001-0.554-0.268-0.887-0.746-0.934
			c-0.25-0.023-0.505-0.003-0.8-0.003c0.046,0.469-0.122,0.903,0.21,1.332c0.336,0.435,0.195,1.103-0.223,1.464
			c-0.433,0.374-1.034,0.382-1.468,0.017c-0.441-0.374-0.596-1.005-0.253-1.454c0.33-0.438,0.197-0.879,0.228-1.336
			c-2.15,0-4.265,0-6.379,0c-0.073,0.704-0.057,0.793,0.239,1.352c0.265,0.504,0.141,1.102-0.307,1.459
			c-0.425,0.337-1.032,0.326-1.441-0.032c-0.42-0.364-0.563-1.026-0.227-1.467C14.413,16.66,14.253,16.226,14.295,15.749z
			 M15.738,14.214c2.22,0,4.335,0,6.492,0c-0.027-0.558-0.017-1.089-0.088-1.611c-0.204-1.479-1.463-2.649-2.898-2.731
			c-1.54-0.094-2.943,0.874-3.299,2.355C15.793,12.857,15.805,13.527,15.738,14.214z"/>
	</g>
</g>
<g id="navbar">
</g>
<g id="參考線">
</g>
</svg>
