<?xml version="1.0" encoding="utf-8"?>
<!-- Generator: Adobe Illustrator 16.0.0, SVG Export Plug-In . SVG Version: 6.00 Build 0)  -->
<!DOCTYPE svg PUBLIC "-//W3C//DTD SVG 1.1//EN" "http://www.w3.org/Graphics/SVG/1.1/DTD/svg11.dtd">
<svg version="1.1" xmlns="http://www.w3.org/2000/svg" xmlns:xlink="http://www.w3.org/1999/xlink" x="0px" y="0px" width="18px"
	 height="18px" viewBox="0 0 18 18" enable-background="new 0 0 18 18" xml:space="preserve">
<g id="footer">
</g>
<g id="選項">
	<g>
		<path d="M9.444,15.62H1.575c-0.313,0-0.567-0.254-0.567-0.566V2.946c0-0.313,0.254-0.566,0.567-0.566h7.869
			c0.313,0,0.566,0.254,0.566,0.566v3.027c0,0.313-0.253,0.567-0.566,0.567c-0.313,0-0.568-0.255-0.568-0.567v-2.46H2.144v10.973
			h6.732v-2.46c0-0.313,0.255-0.567,0.568-0.567c0.313,0,0.566,0.255,0.566,0.567v3.027C10.011,15.366,9.757,15.62,9.444,15.62z"/>
		<path d="M16.741,8.521l-5.035-3.209c-0.175-0.112-0.313-0.12-0.494-0.019C11.03,5.392,11,5.582,11,5.789V6H4.835
			C4.521,6,4,7.354,4,7.668v2.664C4,10.646,4.521,11,4.835,11H11v1.211c0,0.205,0.03,0.398,0.212,0.496
			c0.085,0.047,0.137,0.069,0.23,0.069c0.106,0,0.193-0.029,0.285-0.088l5.023-3.209C16.915,9.375,17.008,9.193,17.008,9
			S16.904,8.625,16.741,8.521z"/>
	</g>
</g>
<g id="navbar">
</g>
<g id="參考線">
</g>
</svg>
