<?xml version="1.0" encoding="utf-8"?>
<!-- Generator: Adobe Illustrator 16.0.0, SVG Export Plug-In . SVG Version: 6.00 Build 0)  -->
<!DOCTYPE svg PUBLIC "-//W3C//DTD SVG 1.1//EN" "http://www.w3.org/Graphics/SVG/1.1/DTD/svg11.dtd">
<svg version="1.1" xmlns="http://www.w3.org/2000/svg" xmlns:xlink="http://www.w3.org/1999/xlink" x="0px" y="0px" width="38px"
	 height="38px" viewBox="0 0 38 38" enable-background="new 0 0 38 38" xml:space="preserve">
<g id="footer">
</g>
<g id="選項">
	<g>
		<path d="M18.999,37C9.074,37,1,28.925,1,19C1,9.074,9.074,1,18.999,1C28.925,1,37,9.074,37,19C37,28.925,28.925,37,18.999,37z
			 M18.999,1.468C9.332,1.468,1.467,9.332,1.467,19c0,9.666,7.865,17.531,17.532,17.531c9.669,0,17.534-7.865,17.534-17.531
			C36.533,9.332,28.668,1.468,18.999,1.468z"/>
		<g>
			<path d="M28.338,11.617h-1.152H10.989H9.661c-0.308,0-0.558,0.25-0.558,0.559c0,0.308,0.25,0.559,0.558,0.559h1.328v15.534
				c0,1.231,1.002,2.235,2.232,2.235h11.73c1.231,0,2.233-1.004,2.233-2.235V12.734h1.152c0.309,0,0.559-0.251,0.559-0.559
				C28.896,11.867,28.646,11.617,28.338,11.617z M26.07,28.269c0,0.616-0.502,1.117-1.118,1.117h-11.73
				c-0.615,0-1.118-0.501-1.118-1.117V12.734H26.07V28.269z"/>
			<path d="M15.108,27.115c0.309,0,0.559-0.25,0.559-0.559V15.84c0-0.31-0.25-0.559-0.559-0.559c-0.31,0-0.559,0.249-0.559,0.559
				v10.717C14.55,26.865,14.799,27.115,15.108,27.115z"/>
			<path d="M18.9,27.115c0.309,0,0.559-0.25,0.559-0.559V15.84c0-0.31-0.25-0.559-0.559-0.559s-0.559,0.249-0.559,0.559v10.717
				C18.342,26.865,18.592,27.115,18.9,27.115z"/>
			<path d="M22.695,27.115c0.307,0,0.559-0.25,0.559-0.559V15.84c0-0.31-0.252-0.559-0.559-0.559c-0.31,0-0.559,0.249-0.559,0.559
				v10.717C22.137,26.865,22.386,27.115,22.695,27.115z"/>
			<path d="M14.968,11.129c0.309,0,0.56-0.252,0.56-0.559V9.241c0-0.344,0.282-0.627,0.627-0.627h5.655
				c0.348,0,0.629,0.283,0.629,0.627v1.329c0,0.307,0.25,0.559,0.56,0.559c0.309,0,0.558-0.252,0.558-0.559V9.241
				c0-0.96-0.782-1.745-1.746-1.745h-5.655c-0.961,0-1.745,0.785-1.745,1.745v1.329C14.409,10.877,14.66,11.129,14.968,11.129z"/>
		</g>
	</g>
</g>
<g id="navbar">
</g>
<g id="參考線">
</g>
</svg>
