<?xml version="1.0" encoding="utf-8"?>
<!-- Generator: Adobe Illustrator 22.0.0, SVG Export Plug-In . SVG Version: 6.00 Build 0)  -->
<svg version="1.1" id="圖層_1" xmlns="http://www.w3.org/2000/svg" xmlns:xlink="http://www.w3.org/1999/xlink" x="0px" y="0px"
	 viewBox="0 0 39 33" style="enable-background:new 0 0 39 33;" xml:space="preserve">
<g>
	<path d="M19.4,6c1-0.9,1.8-1.7,2.7-2.4c3.7-3.2,8.9-2.8,12.3,0.7c3.5,3.6,3.6,8.8,0.1,12.4c-3.8,4-7.8,7.8-11.6,11.7
		c-1.1,1.1-2.2,2.1-3.3,3.2c-0.2-0.2-0.5-0.4-0.8-0.7C14.1,26.3,9.5,21.6,4.8,17c-2.8-2.8-3.6-6.1-2.1-9.7c1.5-3.7,4.4-5.8,8.4-5.9
		c2.4-0.1,4.5,0.8,6.2,2.5C18,4.6,18.7,5.3,19.4,6z"/>
</g>
</svg>
