<?xml version="1.0" encoding="utf-8"?>
<!-- Generator: Adobe Illustrator 22.0.0, SVG Export Plug-In . SVG Version: 6.00 Build 0)  -->
<svg version="1.1" id="圖層_1" xmlns="http://www.w3.org/2000/svg" xmlns:xlink="http://www.w3.org/1999/xlink" x="0px" y="0px"
	 viewBox="0 0 79 79" style="enable-background:new 0 0 79 79;" xml:space="preserve">
<style type="text/css">
	.st0{fill-rule:evenodd;clip-rule:evenodd;}
	.st1{fill:#231815;}
	.st2{fill-rule:evenodd;clip-rule:evenodd;fill:#231815;}
</style>
<path class="st1" d="M45.1,39.3c3.9-2,6.5-5.9,6.5-10.3c0-6.4-5.4-11.6-12-11.6c-6.6,0-12,5.2-12,11.6c0,4.3,2.5,8.2,6.4,10.2
	c-1.2,0.8-2.3,1.8-3.3,3C27,46.5,25,53,25,60c0,0.8,0.7,1.5,1.6,1.5h25.9c0.9,0,1.6-0.7,1.6-1.5C54,50.9,50.4,42.8,45.1,39.3z
	 M39.5,40.6c6,0,10.9,7.8,11.3,17.8H28.2c0.3-5.6,2.1-11,4.9-14.3C34.9,41.9,37.2,40.6,39.5,40.6z M39.5,20.5c4.9,0,8.9,3.8,8.9,8.6
	c0,4.7-4,8.6-8.9,8.6s-8.9-3.8-8.9-8.6C30.6,24.4,34.6,20.5,39.5,20.5z"/>
</svg>
