<?xml version="1.0" encoding="utf-8"?>
<!-- Generator: Adobe Illustrator 16.0.0, SVG Export Plug-In . SVG Version: 6.00 Build 0)  -->
<!DOCTYPE svg PUBLIC "-//W3C//DTD SVG 1.1//EN" "http://www.w3.org/Graphics/SVG/1.1/DTD/svg11.dtd">
<svg version="1.1" id="Layer_1" xmlns="http://www.w3.org/2000/svg" xmlns:xlink="http://www.w3.org/1999/xlink" x="0px" y="0px"
	 width="80px" height="80px" viewBox="216 215.999 80 80" enable-background="new 216 215.999 80 80" xml:space="preserve">
<g>
	<g>
		<ellipse fill="#C1272D" cx="256" cy="255.999" rx="36.311" ry="34.818"/>
		<path fill="#C1272D" d="M256,292.89c-10.236,0-19.863-3.827-27.109-10.774c-7.269-6.972-11.272-16.247-11.272-26.117
			s4.003-19.144,11.272-26.115c7.246-6.948,16.874-10.774,27.109-10.774c10.236,0,19.863,3.826,27.109,10.774
			c7.27,6.971,11.272,16.245,11.272,26.115s-4.003,19.146-11.272,26.117C275.863,289.063,266.236,292.89,256,292.89z M256,223.252
			c-18.879,0-34.239,14.69-34.239,32.747c0,18.057,15.359,32.747,34.239,32.747c18.88,0,34.238-14.69,34.238-32.747
			C290.238,237.943,274.88,223.252,256,223.252z"/>
	</g>
	<ellipse fill="#FFFFFF" cx="256" cy="255.999" rx="29.212" ry="28.011"/>
	<g>
		<ellipse fill="#C1272D" cx="256" cy="255.999" rx="20.535" ry="19.69"/>
		<path fill="#C1272D" d="M256,276.862c-11.969,0-21.706-9.359-21.706-20.863c0-11.503,9.737-20.862,21.706-20.862
			c11.968,0,21.706,9.358,21.706,20.862C277.706,267.503,267.968,276.862,256,276.862z M256,237.48
			c-10.677,0-19.363,8.308-19.363,18.519c0,10.212,8.686,18.52,19.363,18.52s19.363-8.308,19.363-18.52
			C275.363,245.788,266.677,237.48,256,237.48z"/>
	</g>
	<g>
		<g>
			<polygon fill="#FFFFFF" points="259.515,223.859 232.546,283.095 242.91,283.095 249.976,266.019 259.396,266.019 
				259.515,271.907 268.465,271.553 267.758,223.977 			"/>
			<path fill="#C1272D" d="M243.602,284.131h-12.664l27.915-61.317l9.926,0.142l0.737,49.593l-11.016,0.435l-0.118-5.929h-7.714
				L243.602,284.131z M234.155,282.059h8.063l7.066-17.075h11.128l0.117,5.848l6.886-0.273l-0.677-45.561l-6.562-0.094
				L234.155,282.059z"/>
		</g>
		<path fill="#C1272D" d="M260.668,257.986h-8.378l6.392-14.87l1.986,0.41V257.986z M255.434,255.915h3.164v-7.359L255.434,255.915z
			"/>
		
			<rect x="257.785" y="256.445" transform="matrix(0.7023 0.7119 -0.7119 0.7023 261.8804 -111.2773)" fill="#C1272D" width="12.409" height="2.071"/>
		
			<rect x="262.896" y="260.812" transform="matrix(0.6184 0.7859 -0.7859 0.6184 310.0928 -105.7443)" fill="#C1272D" width="2.07" height="11.239"/>
	</g>
</g>
</svg>
