<?xml version="1.0" encoding="utf-8"?>
<!-- Generator: Adobe Illustrator 22.0.0, SVG Export Plug-In . SVG Version: 6.00 Build 0)  -->
<svg version="1.1" id="圖層_1" xmlns="http://www.w3.org/2000/svg" xmlns:xlink="http://www.w3.org/1999/xlink" x="0px" y="0px"
	 viewBox="0 0 170 79" style="enable-background:new 0 0 170 79;" xml:space="preserve">
<style type="text/css">
	.st0{fill-rule:evenodd;clip-rule:evenodd;}
	.st1{fill:#231815;}
	.st2{fill-rule:evenodd;clip-rule:evenodd;fill:#231815;}
</style>
<g>
	<g>
		<path class="st1" d="M52.5,28H20.8c-1.1,0-2,0.9-2,2c0,1.1,0.9,2,2,2h31.6c1.1,0,2-0.9,2-2C54.4,28.9,53.6,28,52.5,28z"/>
		<path class="st1" d="M52.5,37.5H20.8c-1.1,0-2,0.9-2,2c0,1.1,0.9,2,2,2h31.6c1.1,0,2-0.9,2-2C54.4,38.4,53.6,37.5,52.5,37.5z"/>
		<path class="st1" d="M52.5,47.1H20.8c-1.1,0-2,0.9-2,2c0,1.1,0.9,2,2,2h31.6c1.1,0,2-0.9,2-2C54.4,48,53.6,47.1,52.5,47.1z"/>
	</g>
	<g>
		<path class="st1" d="M62.5,30.2h4.6v2.5c1.6-2,3.6-3,5.8-3c1.2,0,2.2,0.2,3.1,0.7c0.9,0.5,1.6,1.2,2.2,2.2c0.8-1,1.7-1.7,2.7-2.2
			c0.9-0.5,2-0.7,3-0.7c1.4,0,2.5,0.3,3.5,0.8c1,0.6,1.7,1.4,2.1,2.5c0.3,0.8,0.5,2.1,0.5,3.9v11.9H85V38.2c0-1.9-0.2-3-0.5-3.6
			c-0.5-0.7-1.2-1.1-2.1-1.1c-0.7,0-1.3,0.2-2,0.6c-0.6,0.4-1,1-1.3,1.9c-0.3,0.8-0.4,2.1-0.4,3.9v9h-4.9V38.6c0-1.8-0.1-3-0.3-3.5
			c-0.2-0.5-0.4-0.9-0.8-1.2c-0.4-0.3-0.9-0.4-1.5-0.4c-0.8,0-1.4,0.2-2.1,0.6c-0.6,0.4-1,1-1.3,1.8c-0.3,0.8-0.4,2.1-0.4,3.9v9.1
			h-4.9V30.2z"/>
		<path class="st1" d="M104.8,42.9l4.9,0.8c-0.6,1.8-1.6,3.2-3,4.1c-1.4,0.9-3.1,1.4-5.1,1.4c-3.2,0-5.6-1.1-7.2-3.2
			c-1.2-1.7-1.8-3.8-1.8-6.4c0-3.1,0.8-5.5,2.4-7.3c1.6-1.8,3.7-2.6,6.1-2.6c2.8,0,5,0.9,6.6,2.8c1.6,1.8,2.4,4.6,2.3,8.4H97.6
			c0,1.5,0.4,2.6,1.2,3.4c0.8,0.8,1.7,1.2,2.8,1.2c0.8,0,1.4-0.2,2-0.6C104.2,44.5,104.6,43.8,104.8,42.9z M105.1,37.9
			c0-1.4-0.4-2.5-1.1-3.3c-0.7-0.7-1.6-1.1-2.6-1.1c-1.1,0-2,0.4-2.7,1.2c-0.7,0.8-1,1.9-1,3.2H105.1z"/>
		<path class="st1" d="M130.1,48.8h-4.9v-9.5c0-2-0.1-3.3-0.3-3.9c-0.2-0.6-0.6-1.1-1-1.4c-0.5-0.3-1-0.5-1.7-0.5
			c-0.9,0-1.6,0.2-2.3,0.7c-0.7,0.5-1.1,1.1-1.4,1.9c-0.3,0.8-0.4,2.2-0.4,4.3v8.5h-4.9V30.2h4.6v2.7c1.6-2.1,3.7-3.2,6.2-3.2
			c1.1,0,2.1,0.2,3,0.6c0.9,0.4,1.6,0.9,2,1.5c0.5,0.6,0.8,1.3,1,2.1c0.2,0.8,0.3,1.9,0.3,3.3V48.8z"/>
		<path class="st1" d="M146.5,48.8V46c-0.7,1-1.6,1.8-2.7,2.4c-1.1,0.6-2.3,0.9-3.5,0.9c-1.3,0-2.4-0.3-3.4-0.8
			c-1-0.6-1.7-1.3-2.2-2.3c-0.4-1-0.7-2.4-0.7-4.1V30.2h4.9v8.6c0,2.6,0.1,4.2,0.3,4.8c0.2,0.6,0.5,1.1,1,1.4
			c0.5,0.3,1.1,0.5,1.8,0.5c0.8,0,1.6-0.2,2.3-0.7c0.7-0.5,1.1-1,1.4-1.7c0.2-0.7,0.4-2.4,0.4-5v-7.9h4.9v18.7H146.5z"/>
	</g>
</g>
</svg>
