<?xml version="1.0" encoding="utf-8"?>
<!-- Generator: Adobe Illustrator 22.0.0, SVG Export Plug-In . SVG Version: 6.00 Build 0)  -->
<svg version="1.1" id="圖層_1" xmlns="http://www.w3.org/2000/svg" xmlns:xlink="http://www.w3.org/1999/xlink" x="0px" y="0px"
	 viewBox="0 0 79 79" style="enable-background:new 0 0 79 79;" xml:space="preserve">
<style type="text/css">
	.st0{fill-rule:evenodd;clip-rule:evenodd;}
	.st1{fill:#231815;}
	.st2{fill-rule:evenodd;clip-rule:evenodd;fill:#231815;}
</style>
<path class="st2" d="M29.9,29.6c0-1.1-0.1-2.1,0-3.2c0.3-4.6,4-8.4,8.5-8.9c4.8-0.6,9.8,2.8,10.7,8.2c0.1,0.8,0.1,1.6,0.1,2.4
	c0,0.5,0,0.9,0,1.5c0.5,0,0.9,0,1.3,0c3-0.1,5,2.4,5,5c-0.1,7.2,0,14.5,0,21.8c0,3-2,5-5,5c-7.3,0-14.7,0-22,0c-3.2,0-5-2.5-5-5.1
	c0.1-7.2,0.1-14.5,0-21.8c0-2.4,1.6-4.4,3.7-4.8C28,29.6,28.8,29.7,29.9,29.6z M29.8,32.8c-0.4,0-0.8,0-1.2,0c-1.4,0-2,0.6-2,2
	c0,7.1,0,14.3,0,21.4c0,1.6,0.5,2.1,2.1,2.1c7.1,0,14.3,0,21.4,0c1.8,0,2.3-0.5,2.3-2.3c0-3.9,0-7.8,0-11.7c0-3.2,0-6.4,0-9.6
	c0-1.1-0.6-1.8-1.5-1.9c-0.5,0-1,0-1.7,0c0.1,1-0.2,1.9,0.4,2.7c0.7,0.9,0.4,2.3-0.5,3c-0.9,0.8-2.1,0.8-3,0c-0.9-0.8-1.2-2.1-0.5-3
	c0.7-0.9,0.4-1.8,0.5-2.8c-4.4,0-8.8,0-13.2,0c-0.1,1.5-0.1,1.6,0.5,2.8c0.5,1,0.3,2.3-0.6,3c-0.9,0.7-2.1,0.7-3-0.1
	c-0.9-0.8-1.2-2.1-0.5-3C30,34.7,29.7,33.8,29.8,32.8z M32.8,29.6c4.6,0,8.9,0,13.4,0c-0.1-1.1,0-2.2-0.2-3.3c-0.4-3.1-3-5.5-6-5.6
	c-3.2-0.2-6.1,1.8-6.8,4.9C32.9,26.8,32.9,28.2,32.8,29.6z"/>
</svg>
