<?xml version="1.0" encoding="utf-8"?>
<!-- Generator: Adobe Illustrator 22.0.0, SVG Export Plug-In . SVG Version: 6.00 Build 0)  -->
<svg version="1.1" id="圖層_1" xmlns="http://www.w3.org/2000/svg" xmlns:xlink="http://www.w3.org/1999/xlink" x="0px" y="0px"
	 viewBox="0 0 79 79" style="enable-background:new 0 0 79 79;" xml:space="preserve">
<style type="text/css">
	.st0{fill-rule:evenodd;clip-rule:evenodd;}
	.st1{fill:#231815;}
	.st2{fill-rule:evenodd;clip-rule:evenodd;fill:#231815;}
</style>
<g>
	<path class="st0" d="M50.3,19.6c1.4,0.6,2.6,1.4,2.9,3c0.2,0.9,0.1,1.9,0.1,2.8c0,0.1-0.1,0.2-0.1,0.3c-1.1,1.1-2.3,2.1-3.6,3.4
		c0-1.9,0-3.5,0-5.1c0-0.6-0.2-0.8-0.8-0.8c-4.7,0-9.4,0-14.1,0c-0.1,0-0.3,0-0.6,0.1c0,1.1-0.1,2.2-0.1,3.3c0,0.9-0.1,1.8-0.1,2.7
		c0,0.6-0.2,0.8-0.8,0.8c-2,0-4,0-6.1,0c0,0.4,0,0.7,0,1.1c0,7.9,0,15.8,0,23.7c0,0.9,0.3,1.1,1.1,1.1c6.8,0,13.6,0,20.4,0
		c0.9,0,1.1-0.2,1.1-1.1c0-4.5,0-8.9,0-13.4c0-0.4,0.2-0.9,0.5-1.2c1-1,2-1.9,3.2-3c0,0.5,0,0.8,0,1c0,5.4-0.1,10.7,0,16.1
		c0,2.4-0.6,4.1-2.9,5.1c-8.1,0-16.2,0-24.3,0c-2.2-0.9-2.9-2.6-2.9-4.9c0.1-8.2,0.1-16.4,0-24.6c0-1.4,0.2-2.4,1.3-3.3
		c0.7-0.6,1.3-1.3,1.9-2c1.5-1.7,3-3.3,4.6-5C37.5,19.6,43.9,19.6,50.3,19.6z"/>
	<path class="st0" d="M44.7,43.1c-1.3-1.3-2.5-2.5-3.8-3.8c0,0,0.2-0.3,0.4-0.5c4.8-4.5,9.6-8.9,14.3-13.4c0.5-0.5,1.1-1,1.6-1.5
		c0.6-0.6,1-0.5,1.6,0.1c0.8,0.8,1.6,1.7,2.4,2.4c0.6,0.5,0.5,0.9,0,1.4c-2.8,2.6-5.6,5.2-8.4,7.8c-2.5,2.3-5,4.7-7.6,7
		C45,42.9,44.8,43.1,44.7,43.1z"/>
	<path class="st0" d="M38.1,45.5c0.3-0.9,0.5-1.6,0.8-2.2c0.1-0.1,0.5-0.3,0.5-0.2c0.4,0.3,0.8,0.7,1.1,1.1c0.1,0.1-0.1,0.5-0.2,0.5
		C39.7,45,39,45.2,38.1,45.5z"/>
</g>
</svg>
