<?xml version="1.0" encoding="utf-8"?>
<!-- Generator: Adobe Illustrator 16.0.0, SVG Export Plug-In . SVG Version: 6.00 Build 0)  -->
<!DOCTYPE svg PUBLIC "-//W3C//DTD SVG 1.1//EN" "http://www.w3.org/Graphics/SVG/1.1/DTD/svg11.dtd">
<svg version="1.1" xmlns="http://www.w3.org/2000/svg" xmlns:xlink="http://www.w3.org/1999/xlink" x="0px" y="0px" width="177px"
	 height="80px" viewBox="0 0 177 80" enable-background="new 0 0 177 80" xml:space="preserve">
<g id="樣搞" display="none">
</g>
<g id="LOGO-第一版">
	<g id="背景">
	</g>
	<g id="logo_x2B_title">
	</g>
</g>
<g id="LOGO-第二版">
	<g id="背景_1_" display="none">
		<rect display="inline" width="177" height="80"/>
	</g>
	<g id="logo_x2B_title_1_">
		<g>
			<path fill="#FFFFFF" d="M21.205,48.622c0-0.485,0.065-0.927,0.198-1.323c0.132-0.396,0.154-0.903,0.066-1.521
				c1.366-2.911,2.921-5.611,4.663-8.104c1.742-2.491,3.826-4.686,6.252-6.582c0.396-0.309,0.716-0.628,0.959-0.96
				c0.242-0.33,0.484-0.649,0.728-0.959c0.242-0.308,0.518-0.583,0.827-0.827c0.308-0.241,0.705-0.406,1.19-0.496
				c1.102-1.277,2.425-2.447,3.969-3.506s3.153-2.071,4.829-3.042s3.362-1.962,5.061-2.978c1.697-1.014,3.23-2.117,4.598-3.308
				c0.485,0.31,0.871,0.409,1.158,0.298c0.286-0.109,0.584-0.121,0.893-0.033c0.397,0.838,0.915,1.422,1.555,1.754
				c0.639,0.33,1.301,0.66,1.984,0.992c0.684,0.33,1.323,0.727,1.919,1.19c0.595,0.463,1.047,1.092,1.355,1.885
				c-0.309,0-0.452,0.111-0.43,0.331c0.021,0.222,0.076,0.463,0.165,0.728c0.088,0.265,0.133,0.508,0.133,0.728
				c0,0.222-0.198,0.331-0.596,0.331c0,0.309,0.154,0.463,0.463,0.463s0.464,0.155,0.464,0.463c0,0.265-0.057,0.475-0.166,0.629
				c-0.11,0.155-0.122,0.408-0.033,0.761c-1.058,0.705-2.238,1.379-3.539,2.018c-1.301,0.64-2.668,1.313-4.101,2.018
				c-1.434,0.706-2.89,1.467-4.366,2.282c-1.479,0.816-2.944,1.753-4.399,2.812s-2.922,2.227-4.399,3.506s-2.9,2.636-4.267,4.068
				c-1.367,1.434-2.646,2.91-3.837,4.432c-1.19,1.521-2.205,3.011-3.043,4.466c0.088,0.221,0.209,0.42,0.364,0.596
				c0.154,0.177,0.274,0.375,0.363,0.595c1.676,0.089,3.242,0.078,4.697-0.033c1.455-0.109,2.91-0.01,4.366,0.298
				c0.176-0.132,0.286-0.308,0.33-0.529c0.044-0.22,0.176-0.374,0.397-0.463c2.998-0.308,5.799-0.804,8.401-1.488
				c2.602-0.684,5.247-1.378,7.938-2.084c-0.794-0.308-1.5-0.551-2.117-0.728c-0.265-0.265-0.255-0.496,0.033-0.694
				c0.286-0.198,0.518-0.407,0.694-0.629c-0.706-0.396-1.29-0.926-1.753-1.588c-0.463-0.661-0.739-1.521-0.827-2.58
				c0.309-0.264,0.463-0.572,0.463-0.926c0-0.352-0.154-0.639-0.463-0.859c-0.221-0.088-0.354-0.088-0.396,0
				c-0.045,0.088-0.078,0.176-0.1,0.264c-0.022,0.09-0.066,0.178-0.132,0.266c-0.066,0.088-0.188,0.088-0.364,0
				c0.044-0.485,0.154-0.882,0.331-1.191c0.176-0.308,0.308-0.684,0.396-1.125l5.491-3.638c0.572,0.441,1.278,0.904,2.116,1.389
				c0.838,0.486,1.72,0.971,2.646,1.456c0.926,0.485,1.874,0.981,2.845,1.488c0.969,0.508,1.874,1.004,2.712,1.488
				c0.794,0.354,1.477,0.783,2.051,1.29c0.572,0.507,1.124,1.037,1.653,1.588c0.529,0.552,1.059,1.091,1.588,1.62
				s1.168,0.971,1.918,1.323c-0.089,0.706-0.044,1.28,0.133,1.72c0.176,0.441,0.22,0.971,0.132,1.588
				c-0.838,1.5-1.852,2.769-3.043,3.804c-1.19,1.037-2.524,1.93-4.002,2.68s-3.054,1.379-4.729,1.885
				c-1.677,0.508-3.396,0.992-5.16,1.455c-1.765,0.464-3.539,0.949-5.325,1.456s-3.539,1.091-5.259,1.753
				c-0.751,0-1.39,0.022-1.919,0.066c-0.528,0.044-1.036,0.11-1.521,0.198c-0.485,0.089-0.97,0.177-1.455,0.265
				c-0.485,0.089-1.015,0.154-1.588,0.198c-0.221-0.044-0.363,0-0.43,0.132c-0.066,0.133-0.165,0.243-0.298,0.331
				c-0.883,0.133-1.676,0.198-2.381,0.198c-0.706,0-1.302,0-1.786,0c-0.618,0-1.257,0.089-1.919,0.265
				c-0.661,0.176-1.279,0.242-1.852,0.198c-3.97-0.175-7.079-1.587-9.328-4.233c-2.249-2.646-3.484-6.284-3.704-10.915
				c0.043-0.22,0-0.363-0.133-0.43C21.403,48.787,21.293,48.711,21.205,48.622z"/>
			<path fill="#FFFFFF" d="M107.26,60.198c-0.195,0.554-0.48,1.115-0.854,1.685c-0.375,0.57-0.814,1.074-1.318,1.514
				c-0.505,0.439-1.066,0.806-1.685,1.099c-0.619,0.293-1.27,0.455-1.953,0.488c-0.424-0.098-0.708-0.204-0.854-0.317
				c-0.146-0.114-0.302-0.22-0.464-0.317c-0.098-0.064-0.188-0.122-0.269-0.171c-0.082-0.049-0.155-0.089-0.22-0.122l-0.586-0.244
				l0.195-0.635c0.064-0.26,0.049-0.464-0.049-0.61s-0.293-0.35-0.586-0.61c-0.098-0.098-0.195-0.195-0.293-0.293
				s-0.18-0.195-0.244-0.293l-0.83-0.928l1.318-0.342c0.813-0.228,1.358-0.521,1.636-0.879c0.276-0.357,0.382-0.96,0.317-1.807
				c-0.651-0.13-1.196-0.146-1.636-0.049s-0.888,0.212-1.343,0.342c-0.586,0.163-1.181,0.302-1.782,0.415
				c-0.603,0.114-1.262,0.171-1.978,0.171c-0.261,0-0.505-0.008-0.732-0.024c-0.229-0.016-0.473-0.04-0.732-0.073l-0.488-0.098
				c-0.065-0.357-0.131-0.562-0.195-0.61c-0.065-0.049-0.131-0.105-0.195-0.171c-0.163-0.162-0.334-0.382-0.513-0.659
				c-0.18-0.276-0.22-0.626-0.122-1.05c-0.163-0.293-0.261-0.586-0.293-0.879c-0.195,0.391-0.342,0.798-0.439,1.221l-0.195,0.488
				l-0.488,0.098c-0.065,0.033-0.114,0.106-0.146,0.22c-0.033,0.114-0.049,0.204-0.049,0.269l-0.244,0.83
				c-0.065,0.065-0.131,0.122-0.195,0.171c-0.065,0.049-0.131,0.106-0.195,0.171c-0.065,0.293-0.146,0.586-0.244,0.879
				s-0.195,0.57-0.293,0.83c-0.163,0.424-0.302,0.839-0.415,1.245c-0.114,0.407-0.155,0.806-0.122,1.196l-0.195,0.537
				c-0.163,0.195-0.342,0.351-0.537,0.464c-0.195,0.114-0.391,0.22-0.586,0.317c-0.065,0.065-0.155,0.122-0.269,0.171
				c-0.114,0.049-0.204,0.09-0.269,0.122l-0.146,0.537l-0.586,0.098c-0.358,0.064-0.61,0.113-0.757,0.146
				c-0.146,0.032-0.317,0.049-0.513,0.049l-0.488-0.049c-0.358-0.293-0.635-0.528-0.83-0.708c-0.195-0.179-0.424-0.35-0.684-0.513
				c-0.293-0.391-0.456-0.684-0.488-0.879s-0.065-0.374-0.098-0.537c-0.065-0.195-0.105-0.357-0.122-0.488
				c-0.017-0.13-0.057-0.228-0.122-0.293l-0.635-0.586l0.537-0.439l0.049-0.83c0.651-1.66,1.343-3.255,2.075-4.785
				c0.732-1.529,1.489-3.092,2.271-4.688c0.26-0.521,0.513-1.041,0.757-1.563c0.244-0.521,0.496-1.041,0.757-1.563
				c-0.033-0.098-0.049-0.211-0.049-0.342c0-0.13,0.032-0.276,0.098-0.439c0.357-0.553,0.65-1.05,0.879-1.489
				c0.228-0.439,0.455-0.887,0.684-1.343c0.26-0.553,0.528-1.09,0.806-1.611c0.276-0.521,0.626-1.058,1.05-1.611l0.781-0.342
				c0.098-0.032,0.211-0.073,0.342-0.122c0.13-0.049,0.276-0.073,0.439-0.073l0.732,0.098c0.911-0.423,1.709-1.017,2.393-1.782
				c0.684-0.765,1.383-1.685,2.1-2.759l0.488-0.684l0.635,0.391c0.162,0.098,0.391,0.188,0.684,0.269
				c0.293,0.082,0.602,0.171,0.928,0.269c0.586,0.131,1.139,0.276,1.66,0.439c0.521,0.163,0.943,0.407,1.27,0.732
				c0.195,0.521,0.309,0.911,0.342,1.172c0.032,0.261,0.081,0.521,0.146,0.781c0.098,0.554,0.187,1.106,0.269,1.66
				c0.081,0.554,0.138,1.172,0.171,1.855c0.162,0.554,0.301,1.099,0.415,1.636c0.113,0.537,0.22,1.083,0.317,1.636
				c0.162,0.781,0.325,1.538,0.488,2.271c0.162,0.732,0.374,1.425,0.635,2.075c0.26,0,0.423,0.017,0.488,0.049
				c0.162-0.064,0.333-0.113,0.513-0.146c0.179-0.032,0.382-0.064,0.61-0.098l0.537-0.049l0.195,0.488
				c0.032,0.163,0.195,0.326,0.488,0.488c0.423,0.033,0.732,0.122,0.928,0.269s0.374,0.302,0.537,0.464
				c0.13,0.131,0.26,0.229,0.391,0.293l0.732,0.293l-0.391,0.732c-0.326,0.586-0.79,1.147-1.392,1.685
				c-0.603,0.537-1.278,0.985-2.026,1.343c0.032,0.195,0.057,0.383,0.073,0.562c0.016,0.18,0.057,0.366,0.122,0.562
				c0.098,0.554,0.179,1.123,0.244,1.709c0.064,0.586,0.064,1.188,0,1.807L107.26,60.198z M93.148,51.751
				c0.977-0.064,1.863-0.138,2.661-0.22c0.797-0.081,1.685-0.22,2.661-0.415c-0.229-0.977-0.473-1.993-0.732-3.052
				c-0.261-1.058-0.537-2.107-0.83-3.149l-0.293,0.488c-0.651,0.684-1.278,1.449-1.88,2.295c-0.603,0.847-1.115,1.645-1.538,2.393
				c-0.195,0.293-0.391,0.586-0.586,0.879s-0.375,0.586-0.537,0.879c0.195-0.032,0.382-0.049,0.562-0.049
				C92.814,51.8,92.985,51.784,93.148,51.751z"/>
			<path fill="#FFFFFF" d="M120.834,60.882c0.162,0.977,0.105,1.742-0.171,2.295c-0.277,0.554-0.668,0.969-1.172,1.245
				c-0.505,0.276-1.083,0.431-1.733,0.464c-0.651,0.032-1.27,0-1.855-0.098c-0.326-0.456-0.619-1.025-0.879-1.709
				c-0.261-0.684-0.505-1.392-0.732-2.124c-0.229-0.732-0.432-1.456-0.61-2.173c-0.18-0.716-0.334-1.351-0.464-1.904
				c0.162-0.391,0.269-0.838,0.317-1.343c0.049-0.504,0.081-1.017,0.098-1.538c0.016-0.521,0.032-1.05,0.049-1.587
				c0.016-0.537,0.057-1.05,0.122-1.538c0.228-1.367,0.562-2.669,1.001-3.906c0.439-1.236,0.789-2.522,1.05-3.857
				c0.064-0.293,0.04-0.569-0.073-0.83c-0.114-0.26-0.139-0.504-0.073-0.732c0.032-0.13,0.13-0.22,0.293-0.269
				c0.162-0.049,0.26-0.154,0.293-0.317c0.098-0.357,0.122-0.65,0.073-0.879c-0.049-0.228,0.008-0.504,0.171-0.83
				c0.162-0.261,0.366-0.643,0.61-1.147s0.333-1.033,0.269-1.587c0.293-0.195,0.569-0.423,0.83-0.684
				c0.26-0.261,0.528-0.496,0.806-0.708c0.276-0.211,0.586-0.398,0.928-0.562c0.342-0.162,0.757-0.244,1.245-0.244
				c0.26,0.325,0.431,0.684,0.513,1.074c0.081,0.391,0.162,0.781,0.244,1.172c0.081,0.391,0.203,0.757,0.366,1.099
				c0.162,0.342,0.439,0.61,0.83,0.806c0,0.261,0,0.586,0,0.977s0.016,0.773,0.049,1.147c0.032,0.374,0.105,0.716,0.22,1.025
				c0.113,0.31,0.301,0.513,0.562,0.61c-0.586,1.563-1.132,3.109-1.636,4.639c-0.505,1.53-0.92,3.068-1.245,4.614
				c-0.326,1.547-0.529,3.101-0.61,4.663C120.435,57.708,120.541,59.287,120.834,60.882z"/>
			<path fill="#FFFFFF" d="M152.328,60.198c-0.195,0.554-0.48,1.115-0.854,1.685c-0.375,0.57-0.814,1.074-1.318,1.514
				c-0.505,0.439-1.066,0.806-1.685,1.099c-0.619,0.293-1.27,0.455-1.953,0.488c-0.424-0.098-0.708-0.204-0.854-0.317
				c-0.146-0.114-0.302-0.22-0.464-0.317c-0.098-0.064-0.188-0.122-0.269-0.171c-0.082-0.049-0.155-0.089-0.22-0.122l-0.586-0.244
				l0.195-0.635c0.064-0.26,0.049-0.464-0.049-0.61s-0.293-0.35-0.586-0.61c-0.098-0.098-0.195-0.195-0.293-0.293
				s-0.18-0.195-0.244-0.293l-0.83-0.928l1.318-0.342c0.813-0.228,1.358-0.521,1.636-0.879c0.276-0.357,0.382-0.96,0.317-1.807
				c-0.651-0.13-1.196-0.146-1.636-0.049s-0.888,0.212-1.343,0.342c-0.586,0.163-1.181,0.302-1.782,0.415
				c-0.603,0.114-1.262,0.171-1.978,0.171c-0.261,0-0.505-0.008-0.732-0.024c-0.229-0.016-0.473-0.04-0.732-0.073l-0.488-0.098
				c-0.065-0.357-0.131-0.562-0.195-0.61c-0.065-0.049-0.131-0.105-0.195-0.171c-0.163-0.162-0.334-0.382-0.513-0.659
				c-0.18-0.276-0.22-0.626-0.122-1.05c-0.163-0.293-0.261-0.586-0.293-0.879c-0.195,0.391-0.342,0.798-0.439,1.221l-0.195,0.488
				l-0.488,0.098c-0.065,0.033-0.114,0.106-0.146,0.22c-0.033,0.114-0.049,0.204-0.049,0.269l-0.244,0.83
				c-0.065,0.065-0.131,0.122-0.195,0.171c-0.065,0.049-0.131,0.106-0.195,0.171c-0.065,0.293-0.146,0.586-0.244,0.879
				s-0.195,0.57-0.293,0.83c-0.163,0.424-0.302,0.839-0.415,1.245c-0.114,0.407-0.155,0.806-0.122,1.196l-0.195,0.537
				c-0.163,0.195-0.342,0.351-0.537,0.464c-0.195,0.114-0.391,0.22-0.586,0.317c-0.065,0.065-0.155,0.122-0.269,0.171
				c-0.114,0.049-0.204,0.09-0.269,0.122l-0.146,0.537l-0.586,0.098c-0.358,0.064-0.61,0.113-0.757,0.146
				c-0.146,0.032-0.317,0.049-0.513,0.049l-0.488-0.049c-0.358-0.293-0.635-0.528-0.83-0.708c-0.195-0.179-0.424-0.35-0.684-0.513
				c-0.293-0.391-0.456-0.684-0.488-0.879s-0.065-0.374-0.098-0.537c-0.065-0.195-0.105-0.357-0.122-0.488
				c-0.017-0.13-0.057-0.228-0.122-0.293l-0.635-0.586l0.537-0.439l0.049-0.83c0.651-1.66,1.343-3.255,2.075-4.785
				c0.732-1.529,1.489-3.092,2.271-4.688c0.26-0.521,0.513-1.041,0.757-1.563c0.244-0.521,0.496-1.041,0.757-1.563
				c-0.033-0.098-0.049-0.211-0.049-0.342c0-0.13,0.032-0.276,0.098-0.439c0.357-0.553,0.65-1.05,0.879-1.489
				c0.228-0.439,0.455-0.887,0.684-1.343c0.26-0.553,0.528-1.09,0.806-1.611c0.276-0.521,0.626-1.058,1.05-1.611l0.781-0.342
				c0.098-0.032,0.211-0.073,0.342-0.122c0.13-0.049,0.276-0.073,0.439-0.073l0.732,0.098c0.911-0.423,1.709-1.017,2.393-1.782
				c0.684-0.765,1.383-1.685,2.1-2.759l0.488-0.684l0.635,0.391c0.162,0.098,0.391,0.188,0.684,0.269
				c0.293,0.082,0.602,0.171,0.928,0.269c0.586,0.131,1.139,0.276,1.66,0.439c0.521,0.163,0.943,0.407,1.27,0.732
				c0.195,0.521,0.309,0.911,0.342,1.172c0.032,0.261,0.081,0.521,0.146,0.781c0.098,0.554,0.187,1.106,0.269,1.66
				c0.081,0.554,0.138,1.172,0.171,1.855c0.162,0.554,0.301,1.099,0.415,1.636c0.113,0.537,0.22,1.083,0.317,1.636
				c0.162,0.781,0.325,1.538,0.488,2.271c0.162,0.732,0.374,1.425,0.635,2.075c0.26,0,0.423,0.017,0.488,0.049
				c0.162-0.064,0.333-0.113,0.513-0.146c0.179-0.032,0.382-0.064,0.61-0.098l0.537-0.049l0.195,0.488
				c0.032,0.163,0.195,0.326,0.488,0.488c0.423,0.033,0.732,0.122,0.928,0.269s0.374,0.302,0.537,0.464
				c0.13,0.131,0.26,0.229,0.391,0.293l0.732,0.293l-0.391,0.732c-0.326,0.586-0.79,1.147-1.392,1.685
				c-0.603,0.537-1.278,0.985-2.026,1.343c0.032,0.195,0.057,0.383,0.073,0.562c0.016,0.18,0.057,0.366,0.122,0.562
				c0.098,0.554,0.179,1.123,0.244,1.709c0.064,0.586,0.064,1.188,0,1.807L152.328,60.198z M138.217,51.751
				c0.977-0.064,1.863-0.138,2.661-0.22c0.797-0.081,1.685-0.22,2.661-0.415c-0.229-0.977-0.473-1.993-0.732-3.052
				c-0.261-1.058-0.537-2.107-0.83-3.149l-0.293,0.488c-0.651,0.684-1.278,1.449-1.88,2.295c-0.603,0.847-1.115,1.645-1.538,2.393
				c-0.195,0.293-0.391,0.586-0.586,0.879s-0.375,0.586-0.537,0.879c0.195-0.032,0.382-0.049,0.562-0.049
				C137.883,51.8,138.054,51.784,138.217,51.751z"/>
		</g>
	</g>
</g>
</svg>
